<svg xmlns="http://www.w3.org/2000/svg" width="138.585" height="684.828" viewBox="0 0 138.585 684.828"><g transform="translate(-1245.037 -850.633)"><g transform="translate(1302 857.1)"><g transform="translate(0 18.274)"><g transform="translate(0 0)"><path d="M81.623,28.132V49.695L41.345,93.665a.722.722,0,0,1-1.067,0L0,49.695V28.132l10.022-9.858H30.11l10.7,10.7,10.7-10.7H71.6Z" transform="translate(0 -18.274)" fill="#fdb4ba"/></g></g><g transform="translate(0 18.274)"><g transform="translate(0 0)"><path d="M19.964,27.724V71.489L0,49.695V28.132l10.022-9.858Z" transform="translate(0 -18.274)" fill="#fe99a0"/><path d="M269.567,27.724V71.489L249.253,93.665a.721.721,0,0,1-.533.235V28.976l10.7-10.7Z" transform="translate(-207.909 -18.274)" fill="#fe99a0"/><g transform="translate(10.022 0)"><path d="M81.167,18.274l-10.145,9.45-9.942-9.45Z" transform="translate(-61.08 -18.274)" fill="#fd8087"/><path d="M334.027,18.274l-9.942,9.45-10.145-9.45Z" transform="translate(-272.449 -18.274)" fill="#fd8087"/></g></g></g></g><g transform="translate(1280 832.359)"><g transform="translate(0 18.274)"><g transform="translate(0 0)"><path d="M21.866,20.915v5.776L11.076,38.47a.194.194,0,0,1-.286,0L0,26.691V20.915l2.685-2.641H8.066l2.867,2.867L13.8,18.274h5.381Z" transform="translate(0 -18.274)" fill="#fdb4ba"/></g></g><g transform="translate(0 18.274)"><g transform="translate(0 0)"><path d="M5.348,20.805V32.53L0,26.691V20.915l2.685-2.641Z" transform="translate(0 -18.274)" fill="#fe99a0"/><path d="M254.3,20.805V32.53l-5.442,5.941a.193.193,0,0,1-.143.063V21.141l2.867-2.867Z" transform="translate(-237.787 -18.274)" fill="#fe99a0"/><g transform="translate(2.685 0)"><path d="M66.461,18.274l-2.718,2.531L61.08,18.274Z" transform="translate(-61.08 -18.274)" fill="#fd8087"/><path d="M319.321,18.274l-2.663,2.531-2.718-2.531Z" transform="translate(-302.825 -18.274)" fill="#fd8087"/></g></g></g></g><g transform="translate(1280 1409.608)"><g transform="translate(0 18.274)"><g transform="translate(0 0)"><path d="M69.161,26.627V44.9L35.032,82.154a.612.612,0,0,1-.9,0L0,44.9V26.627l8.492-8.353h17.02l9.068,9.068,9.068-9.068h17.02Z" transform="translate(0 -18.274)" fill="none" stroke="#fe99a0" stroke-width="2"/></g></g><g transform="translate(0 18.274)"><g transform="translate(0 0)"><path d="M16.916,26.281V63.364L0,44.9V26.627l8.492-8.353Z" transform="translate(0 -18.274)" fill="none" stroke="#fe99a0" stroke-width="2"/><path d="M266.384,26.281V63.364l-17.212,18.79a.611.611,0,0,1-.452.2V27.342l9.068-9.068Z" transform="translate(-214.14 -18.274)" fill="none" stroke="#fe99a0" stroke-width="2"/><g transform="translate(8.492 0)"><path d="M78.1,18.274l-8.6,8.007L61.08,18.274Z" transform="translate(-61.08 -18.274)" fill="none" stroke="#fe99a0" stroke-width="2"/><path d="M330.96,18.274l-8.424,8.007-8.6-8.007Z" transform="translate(-278.784 -18.274)" fill="none" stroke="#fe99a0" stroke-width="2"/></g></g></g></g><g transform="translate(1245.537 1484.608)"><g transform="translate(0 18.274)"><g transform="translate(0 0)"><path d="M34.623,22.456V31.6L17.538,50.254a.306.306,0,0,1-.452,0L0,31.6V22.456l4.251-4.182h8.521l4.539,4.539,4.539-4.539h8.521Z" transform="translate(0 -18.274)" fill="none" stroke="#fe99a0" stroke-width="1"/></g></g><g transform="translate(0 18.274)"><g transform="translate(0 0)"><path d="M8.469,22.282V40.847L0,31.6V22.456l4.251-4.182Z" transform="translate(0 -18.274)" fill="none" stroke="#fe99a0" stroke-width="1"/><path d="M257.563,22.282V40.847l-8.617,9.407a.306.306,0,0,1-.226.1V22.813l4.539-4.539Z" transform="translate(-231.408 -18.274)" fill="none" stroke="#fe99a0" stroke-width="1"/><g transform="translate(4.251 0)"><path d="M69.6,18.274l-4.3,4.008L61.08,18.274Z" transform="translate(-61.08 -18.274)" fill="none" stroke="#fe99a0" stroke-width="1"/><path d="M322.461,18.274l-4.217,4.008-4.3-4.008Z" transform="translate(-296.34 -18.274)" fill="none" stroke="#fe99a0" stroke-width="1"/></g></g></g></g></g></svg>