<svg xmlns="http://www.w3.org/2000/svg" width="166.065" height="728.854" viewBox="0 0 166.065 728.854"><g transform="translate(19 -850.107)"><g transform="translate(-19 873.1)"><g transform="translate(0 18.274)"><g transform="translate(0 0)"><path d="M81.623,28.132V49.695L41.345,93.665a.722.722,0,0,1-1.067,0L0,49.695V28.132l10.022-9.858H30.11l10.7,10.7,10.7-10.7H71.6Z" transform="translate(0 -18.274)" fill="#fdb4ba"/></g></g><g transform="translate(0 18.274)"><g transform="translate(0 0)"><path d="M19.964,27.724V71.489L0,49.695V28.132l10.022-9.858Z" transform="translate(0 -18.274)" fill="#fe99a0"/><path d="M269.567,27.724V71.489L249.253,93.665a.721.721,0,0,1-.533.235V28.976l10.7-10.7Z" transform="translate(-207.909 -18.274)" fill="#fe99a0"/><g transform="translate(10.022 0)"><path d="M81.167,18.274l-10.145,9.45-9.942-9.45Z" transform="translate(-61.08 -18.274)" fill="#fd8087"/><path d="M334.027,18.274l-9.942,9.45-10.145-9.45Z" transform="translate(-272.449 -18.274)" fill="#fd8087"/></g></g></g></g><g transform="translate(54 983.359)"><g transform="translate(0 18.274)"><g transform="translate(0 0)"><path d="M21.866,20.915v5.776L11.076,38.47a.194.194,0,0,1-.286,0L0,26.691V20.915l2.685-2.641H8.066l2.867,2.867L13.8,18.274h5.381Z" transform="translate(0 -18.274)" fill="#fdb4ba"/></g></g><g transform="translate(0 18.274)"><g transform="translate(0 0)"><path d="M5.348,20.805V32.53L0,26.691V20.915l2.685-2.641Z" transform="translate(0 -18.274)" fill="#fe99a0"/><path d="M254.3,20.805V32.53l-5.442,5.941a.193.193,0,0,1-.143.063V21.141l2.867-2.867Z" transform="translate(-237.787 -18.274)" fill="#fe99a0"/><g transform="translate(2.685 0)"><path d="M66.461,18.274l-2.718,2.531L61.08,18.274Z" transform="translate(-61.08 -18.274)" fill="#fd8087"/><path d="M319.321,18.274l-2.663,2.531-2.718-2.531Z" transform="translate(-302.825 -18.274)" fill="#fd8087"/></g></g></g></g><g transform="translate(63 832.529)"><g transform="translate(0 18.274)"><g transform="translate(0 0)"><path d="M26,21.414v6.868L13.17,42.289a.23.23,0,0,1-.34,0L0,28.283V21.414l3.193-3.14h6.4L13,21.683l3.409-3.409h6.4Z" transform="translate(0 -18.274)" fill="none" stroke="#fe99a0" stroke-width="1"/></g></g><g transform="translate(0 18.274)"><g transform="translate(0 0)"><path d="M6.359,21.284V35.225L0,28.283V21.414l3.193-3.14Z" transform="translate(0 -18.274)" fill="none" stroke="#fe99a0" stroke-width="1"/><path d="M255.361,21.284V35.225l-6.471,7.064a.23.23,0,0,1-.17.075V21.683l3.409-3.409Z" transform="translate(-235.72 -18.274)" fill="none" stroke="#fe99a0" stroke-width="1"/><g transform="translate(3.193 0)"><path d="M67.479,18.274l-3.232,3.01-3.167-3.01Z" transform="translate(-61.08 -18.274)" fill="none" stroke="#fe99a0" stroke-width="1"/><path d="M320.339,18.274l-3.167,3.01-3.232-3.01Z" transform="translate(-300.724 -18.274)" fill="none" stroke="#fe99a0" stroke-width="1"/></g></g></g></g><g transform="translate(-16 1409.529)"><g transform="translate(0 18.274)"><g transform="translate(0 0)"><path d="M162.065,37.848V80.661l-79.974,87.3a1.435,1.435,0,0,1-2.118,0L0,80.661V37.848L19.9,18.274H59.784L81.033,39.523l21.249-21.249h39.884Z" transform="translate(0 -18.274)" fill="none" stroke="#fe99a0" stroke-width="2"/></g></g><g transform="translate(0 18.274)"><g transform="translate(0 0)"><path d="M39.64,37.037v86.9L0,80.661V37.848L19.9,18.274Z" transform="translate(0 -18.274)" fill="none" stroke="#fe99a0" stroke-width="2"/><path d="M290.113,37.037v86.9l-40.334,44.032a1.432,1.432,0,0,1-1.059.466V39.523l21.249-21.249Z" transform="translate(-167.687 -18.274)" fill="none" stroke="#fe99a0" stroke-width="2"/><g transform="translate(19.9 0)"><path d="M100.964,18.274,80.82,37.037,61.08,18.274Z" transform="translate(-61.08 -18.274)" fill="none" stroke="#fe99a0" stroke-width="2"/><path d="M353.824,18.274l-19.74,18.763L313.94,18.274Z" transform="translate(-231.558 -18.274)" fill="none" stroke="#fe99a0" stroke-width="2"/></g></g></g></g></g></svg>