<svg xmlns="http://www.w3.org/2000/svg" xmlns:xlink="http://www.w3.org/1999/xlink" width="332.107" height="322.252" viewBox="0 0 332.107 322.252"><defs><clipPath id="a"><path d="M207.966,208.638h-34.71l4.777-17.724-9.11-28.381c-.387-3.763,3.247-6.988,7.871-6.988h27.638c4.624,0,8.257,3.225,7.868,6.988l-9.848,28.381Z" transform="translate(-168.895 -155.546)" fill="#343436"/></clipPath><clipPath id="b"><path d="M186.867,206.455A12.42,12.42,0,1,0,202,197.543,12.422,12.422,0,0,0,186.867,206.455Z" transform="translate(-186.469 -197.143)" fill="#ffb263"/></clipPath><clipPath id="c"><path d="M172.418,154.808a12.42,12.42,0,1,0,15.135-8.915A12.419,12.419,0,0,0,172.418,154.808Z" transform="translate(-172.02 -145.494)" fill="#ffb263"/></clipPath><clipPath id="d"><path d="M133.916,153.359a12.42,12.42,0,1,1-12.42-12.42A12.421,12.421,0,0,1,133.916,153.359Z" transform="translate(-109.076 -140.939)" fill="#ffb263"/></clipPath><linearGradient id="e" x1="0.5" x2="0.5" y2="1" gradientUnits="objectBoundingBox"><stop offset="0" stop-color="#75c6bd"/><stop offset="1" stop-color="#40beb9"/></linearGradient><linearGradient id="f" x1="0.5" x2="0.5" y2="1" gradientUnits="objectBoundingBox"><stop offset="0" stop-color="#ffc9c0"/><stop offset="1" stop-color="#eda99e"/></linearGradient><linearGradient id="g" x1="0.5" x2="0.5" y2="1" gradientUnits="objectBoundingBox"><stop offset="0" stop-color="#fcb71e"/><stop offset="1" stop-color="#ff9d17"/></linearGradient><linearGradient id="h" x1="0.5" x2="0.5" y2="1" gradientUnits="objectBoundingBox"><stop offset="0" stop-color="#300fb9"/><stop offset="1" stop-color="#18085d"/></linearGradient><radialGradient id="i" cx="0.01" cy="0.384" r="1.719" gradientTransform="translate(0.215) scale(0.571 1)" gradientUnits="objectBoundingBox"><stop offset="0" stop-color="#e39a65"/><stop offset="0.283" stop-color="#a92ffb"/><stop offset="0.335" stop-color="#881bfa"/><stop offset="0.398" stop-color="#6507fa"/><stop offset="0.54" stop-color="#0d0c6f"/></radialGradient><radialGradient id="j" cx="0.177" cy="-0.058" r="2.242" gradientTransform="translate(0.211) scale(0.578 1)" gradientUnits="objectBoundingBox"><stop offset="0" stop-color="#e39a65"/><stop offset="0.415" stop-color="#a92ffb"/><stop offset="0.555" stop-color="#881bfa"/><stop offset="0.726" stop-color="#6507fa"/><stop offset="0.737" stop-color="#6308f8"/><stop offset="1" stop-color="#3919bb"/></radialGradient><radialGradient id="k" cx="0.213" cy="-0.015" r="1.479" gradientTransform="translate(0.212) scale(0.576 1)" gradientUnits="objectBoundingBox"><stop offset="0" stop-color="#6507fa"/><stop offset="1" stop-color="#3919bb"/></radialGradient><linearGradient id="l" x1="118.043" y1="117.805" x2="118.907" y2="117.805" gradientUnits="objectBoundingBox"><stop offset="0" stop-color="#e39a65"/><stop offset="1" stop-color="#e95f8d"/></linearGradient><linearGradient id="m" x1="91.185" y1="90.628" x2="92.083" y2="90.628" xlink:href="#l"/><linearGradient id="n" x1="146.315" y1="146.218" x2="147.144" y2="146.218" xlink:href="#l"/><linearGradient id="o" x1="103.356" y1="103.695" x2="104.236" y2="103.695" xlink:href="#l"/><linearGradient id="p" x1="0.5" y1="1" x2="0.5" gradientUnits="objectBoundingBox"><stop offset="0" stop-color="#e39a65"/><stop offset="0.037" stop-color="#d6915f"/><stop offset="0.238" stop-color="#956542"/><stop offset="0.43" stop-color="#60412a"/><stop offset="0.607" stop-color="#362518"/><stop offset="0.766" stop-color="#18100b"/><stop offset="0.903" stop-color="#060402"/><stop offset="1"/></linearGradient><clipPath id="q"><path d="M105.859,208.48a12.42,12.42,0,1,1-14.433-10.007A12.421,12.421,0,0,1,105.859,208.48Z" transform="translate(-81.216 -198.272)" fill="#ffb263"/></clipPath><filter id="r" x="84.502" y="69.372" width="44" height="43" filterUnits="userSpaceOnUse"><feOffset dy="3" input="SourceAlpha"/><feGaussianBlur stdDeviation="3" result="s"/><feFlood flood-opacity="0.161"/><feComposite operator="in" in2="s"/><feComposite in="SourceGraphic"/></filter></defs><g transform="translate(-76.534 -140.939)"><g transform="translate(351.419 153.698)"><path d="M176.771,145.744a14.464,14.464,0,0,1,15.494,8.765,13.652,13.652,0,0,1,1.2,7.651,3.4,3.4,0,0,1-3.387,2.995h-5.795Z" transform="translate(-176.771 -145.591)" fill="#ff5f33"/></g><g transform="translate(334.181 234.089)"><path d="M205.2,174.906h-34.71l.927,74.151h6.628s5.019-44.868,6.911-65.485h4.593l1.382,65.485h6.628s7.824-58.157,7.616-69.368A43.8,43.8,0,0,0,205.2,174.906Z" transform="translate(-170.485 -174.906)" fill="#ffb263"/></g><g transform="translate(329.82 180.997)"><path d="M207.966,208.638h-34.71l4.777-17.724-9.11-28.381c-.387-3.763,3.247-6.988,7.871-6.988h27.638c4.624,0,8.257,3.225,7.868,6.988l-9.848,28.381Z" transform="translate(-168.895 -155.546)" fill="#f5abbc"/></g><g transform="translate(345.748 172.476)"><path d="M180.325,165.844c6.148,0,6.113-4.182,6.113-5.186v-6.8c0-1.541-2.3-1.412-3.667-1.412h-4.4c-1.368,0-3.667,1.25-3.667,2.792v5.424A5.236,5.236,0,0,0,180.325,165.844Z" transform="translate(-174.703 -152.439)" fill="#ff9283"/></g><g transform="translate(327.21 308.143)"><path d="M175.748,201.91h6.741v5.169H168.818c-.9,0-1.212-2.027-.422-2.463Z" transform="translate(-167.943 -201.91)" fill="#fc6262"/></g><g transform="translate(347.018 308.143)"><path d="M182.971,201.91h6.738v5.169H176.041c-.9,0-1.212-2.027-.422-2.463Z" transform="translate(-175.166 -201.91)" fill="#fc6262"/></g><g transform="translate(365.526 181.616)"><path d="M184.668,155.772c2.816.313,6.99,5.427,13.147,16.279s7.563,15.067,7.459,16.632-23.359,10.646-23.359,10.646l.59-6.5,12.7-6.582-11.164-19.723Z" transform="translate(-181.915 -155.772)" fill="#343436"/></g><g transform="translate(318.308 235.877)"><path d="M165.01,175.558h6.678s-.381,5.685-3.922,6.261C163.328,182.537,165.01,175.558,165.01,175.558Z" transform="translate(-164.697 -175.558)" fill="#ff9283"/></g><g transform="translate(314.123 181.616)"><path d="M182.9,155.772c-2.816.313-6.99,5.427-13.147,16.279s-6.678,12.938-6.573,14.5,4.487,23.477,4.487,23.477h6.678l-1.983-23.79,11.167-19.723Z" transform="translate(-163.171 -155.772)" fill="#f5abbc"/></g><g transform="translate(329.82 180.997)"><path d="M207.966,208.638h-34.71l4.777-17.724-9.11-28.381c-.387-3.763,3.247-6.988,7.871-6.988h27.638c4.624,0,8.257,3.225,7.868,6.988l-9.848,28.381Z" transform="translate(-168.895 -155.546)" fill="#343436"/><g clip-path="url(#a)"><g transform="translate(6.947 -19.622)"><path d="M199.288,162.319a13.93,13.93,0,1,1-13.931-13.928A13.93,13.93,0,0,1,199.288,162.319Z" transform="translate(-171.428 -148.391)" fill="#ff9283"/></g></g></g><g transform="translate(320.896 234.088)"><path d="M213.635,174.906h-34.71l-13.285,60.318h25.043l5.009-37.877v37.877h24.73Z" transform="translate(-165.641 -174.906)" fill="#45665d"/></g><g transform="translate(347.063 142.411)"><path d="M183.23,154.637c2.463,0,7.188-7.393,2.874-11.5-4.061-3.869-10.643-.326-10.884,3.9C174.808,154.226,177.89,154.637,183.23,154.637Z" transform="translate(-175.183 -141.476)" fill="#ff5f33"/></g><g transform="translate(352.513 318.33)"><path d="M212.812,264.151l-35.642-.058,10.777-49.45c.834-3.932,7.35-10.034,11.2-8.874l25.767,7.539a6.871,6.871,0,0,1,4.407,9.1Z" transform="translate(-177.17 -205.624)" fill="#ff5f33"/></g><g transform="translate(383.469 313.081)"><path d="M194.76,216.39l-4.492-1.352a2.82,2.82,0,0,1-1.667-3.606l1.667-5.534a2.823,2.823,0,0,1,3.384-2.087l4.489,1.355a2.817,2.817,0,0,1,1.667,3.606l-1.665,5.534A2.819,2.819,0,0,1,194.76,216.39Z" transform="translate(-188.458 -203.71)" fill="#ea6a47"/></g><g transform="translate(76.534 311.16)"><path d="M98.058,203.01c-3.8.688-17.343,1.829-20.836,13.265C74.156,226.3,81.93,235.06,89.017,234.432s10.95-14.979,13.065-21.629S98.058,203.01,98.058,203.01Z" transform="translate(-76.534 -203.01)" fill="#ffce76"/></g><g transform="translate(161.669 221.474)"><path d="M107.64,170.306h34.877l-.932,74.51h-6.658s-5.043-37.483-6.944-58.2h-4.618l-1.388,58.2h-6.661s-7.862-58.437-7.651-69.705A43.511,43.511,0,0,1,107.64,170.306Z" transform="translate(-107.579 -170.306)" fill="#ff5f33"/></g><g transform="translate(378.014 295.072)"><path d="M186.867,206.455A12.42,12.42,0,1,0,202,197.543,12.422,12.422,0,0,0,186.867,206.455Z" transform="translate(-186.469 -197.143)" fill="#ffb263"/><g clip-path="url(#b)"><g transform="translate(-4.615 -2.524)"><path d="M206.388,206.123s-1.089,4.207-.507,4.358,2.981-.159,4.05,2.284-1.2,4.026-3.195,3.974-1.966,5.216,2.753,5.509,9.058-9.883,7.788-14.546-7.506-11.074-10.193-11.458-22.3,4.432-22.3,4.432Z" transform="translate(-184.786 -196.223)" fill="#3b589c"/></g></g></g><g transform="translate(338.39 153.43)"><path d="M172.418,154.808a12.42,12.42,0,1,0,15.135-8.915A12.419,12.419,0,0,0,172.418,154.808Z" transform="translate(-172.02 -145.494)" fill="#ffb263"/><g clip-path="url(#c)"><g transform="translate(-4.615 -2.525)"><path d="M191.939,154.476s-1.089,4.207-.507,4.355,2.981-.156,4.05,2.287-1.2,4.023-3.195,3.971-1.966,5.219,2.756,5.509,9.055-9.883,7.786-14.545-7.506-11.071-10.193-11.458-22.3,4.434-22.3,4.434Z" transform="translate(-170.337 -144.573)" fill="#ff5f33"/></g></g></g><g transform="translate(157.347 168.124)"><path d="M110.386,204.2h34.877l4.355-46.327c.389-3.779-3.263-7.023-7.909-7.023H113.94c-4.646,0-8.3,3.244-7.909,7.023Z" transform="translate(-106.003 -150.852)" fill="#3b589c"/></g><g transform="translate(173.196 159.568)"><path d="M117.922,161.2c-6.179,0-6.14-4.2-6.14-5.21V149.15c0-1.547,2.309-1.415,3.683-1.415h4.421c1.374,0,3.686,1.253,3.686,2.8v5.449A5.261,5.261,0,0,1,117.922,161.2Z" transform="translate(-111.782 -147.732)" fill="#fc963a"/></g><g transform="translate(188.998 295.888)"><path d="M124.315,197.441h-6.771v5.2h13.734c.908,0,1.22-2.038.425-2.476Z" transform="translate(-117.544 -197.441)" fill="#343436"/></g><g transform="translate(169.093 295.888)"><path d="M117.06,197.441h-6.774v5.2h13.736c.908,0,1.218-2.038.425-2.476Z" transform="translate(-110.286 -197.441)" fill="#343436"/></g><g transform="translate(165.775 140.939)"><path d="M133.916,153.359a12.42,12.42,0,1,1-12.42-12.42A12.421,12.421,0,0,1,133.916,153.359Z" transform="translate(-109.076 -140.939)" fill="#ffb263"/><g clip-path="url(#d)"><g transform="translate(-2.767 -3.362)"><path d="M120.1,149.468s0,4.344-.6,4.344-2.847-.9-4.495,1.2.151,4.2,2.1,4.646.6,5.545-4.045,4.646-6.294-11.836-3.9-16.032,10.04-8.841,12.736-8.542,20.48,9.875,20.48,9.875Z" transform="translate(-108.067 -139.713)" fill="#343436"/></g></g></g><g transform="translate(352.511 376.798)"><path d="M212.814,227l-35.642-.058,0,80.571h7.064s5.348-39.748,7.363-61.717h4.9l-.324,31.266L224.875,302.2l3.837-6.45-19.065-24.7s3.6-31.935,3.494-37.441A62.587,62.587,0,0,0,212.814,227Z" transform="translate(-177.169 -226.945)" fill="#5d5d5d"/></g><g transform="translate(344.098 457.267)"><path d="M182.418,256.288h7.18v5.507H175.033c-.96,0-1.292-2.158-.45-2.624Z" transform="translate(-174.101 -256.288)" fill="#343436"/></g><g transform="translate(398.141 445.599)"><path d="M195.746,258.014l3.974-5.981,4.588,3.049-8.062,12.129c-.532.8-2.512-.121-2.435-1.078Z" transform="translate(-193.808 -252.033)" fill="#343436"/></g><g transform="translate(98.344 381.23)"><path d="M85.833,228.561l33.147.45-.952,76.292h-6.82s-5.164-38.382-7.108-59.594H99.372L97.949,305.3h-6.82s-6.842-59-6.626-70.534C84.319,233.909,85.833,228.561,85.833,228.561Z" transform="translate(-84.487 -228.561)" fill="#ffb263"/></g><g transform="translate(84.798 323.237)"><path d="M92.6,267.039l35.141-6.362-2.918-18.335-1.144-29.132c-.3-3.88-4.566-6.48-9.247-5.635l-27.98,5.065c-4.681.847-7.769,4.783-6.686,8.518l15.171,26.927Z" transform="translate(-79.548 -207.414)" fill="#75c6bd"/></g><g transform="translate(98.347 316.876)"><path d="M92.9,219.063c-6.222,1.127-6.952-3.113-7.136-4.13l-1.248-6.889c-.282-1.558,2.068-1.848,3.453-2.1l4.456-.809c1.385-.25,3.941.6,4.223,2.153l.993,5.493A5.387,5.387,0,0,1,92.9,219.063Z" transform="translate(-84.489 -205.094)" fill="#fc963a"/></g><g transform="translate(125.046 457.874)"><path d="M101.157,256.509H94.224v5.317h14.063c.93,0,1.248-2.084.436-2.534Z" transform="translate(-94.224 -256.509)" fill="#3b589c"/></g><g transform="translate(104.667 457.874)"><path d="M93.728,256.509H86.793v5.317h14.063c.93,0,1.248-2.084.436-2.534Z" transform="translate(-86.793 -256.509)" fill="#3b589c"/></g><g transform="translate(85.625 376.128)"><path d="M127.845,226.7l-35.771,6.732L79.849,282.19H137.5Z" transform="translate(-79.849 -226.701)" fill="#e6f9ff"/></g><g transform="translate(128.606 174.26)"><rect width="108.896" height="108.896" rx="15" fill="url(#e)"/></g><g transform="translate(255.382 174.26)"><rect width="108.896" height="108.896" rx="15" fill="url(#f)"/><g transform="translate(27.641 35.995)"><path d="M198.194,167.487c-6.672-3.584-15.412.916-19.5,7.127-4.083-6.211-13.284-10.712-19.956-7.127-7.059,3.79-8.726,11.148-4.934,18.207s24.849,24.253,24.89,24.045c.041.208,21.1-16.986,24.89-24.045S205.253,171.277,198.194,167.487Z" transform="translate(-151.83 -166.215)" fill="#fff"/></g></g><g transform="translate(128.606 299.687)"><rect width="108.896" height="108.896" rx="15" fill="url(#g)"/><g transform="translate(-68.857 -125.948)"><g transform="translate(115.018 159.018)"><rect width="5.164" height="41.748" rx="2.582" fill="#fff"/><g transform="translate(12.177)"><rect width="5.164" height="41.748" rx="2.582" fill="#fff"/></g></g><g transform="translate(102.815 171.221)"><rect width="41.748" height="5.164" rx="2.582" fill="#fff"/><g transform="translate(0 12.177)"><rect width="41.748" height="5.164" rx="2.582" fill="#fff"/></g></g><circle cx="7.5" cy="7.5" r="7.5" transform="translate(109.876 149.344)" fill="#fff"/><circle cx="8.5" cy="8.5" r="8.5" transform="translate(138.017 177.138)" fill="#fff"/><circle cx="7.5" cy="7.5" r="7.5" transform="translate(122.455 192.824)" fill="#fff"/><circle cx="6.5" cy="6.5" r="6.5" transform="translate(95.046 167.03)" fill="#fff"/></g></g><g transform="translate(255.382 299.687)"><rect width="108.896" height="108.896" rx="15" fill="url(#h)"/><g transform="translate(-138.446 -78.248)"><g transform="translate(156.211 97.072)"><g transform="translate(0 0)"><path d="M235.785,157.543l.028.034L213.185,144.5a5,5,0,0,0-4.5.187L157.99,173.952l-1.69-.645.475,2.372h0a1.42,1.42,0,0,0,.761.949l23.353,13.5a5.006,5.006,0,0,0,4.5-.186L236.215,160.6a2.031,2.031,0,0,0,1.077-1.255l0,0,.485-2.308Z" transform="translate(-156.274 -130.55)" fill="url(#i)"/><path d="M180.911,181.483,157,167.662c-1.162-.671-1.017-1.843.326-2.618l51.182-29.55a5.041,5.041,0,0,1,4.535-.188l23.915,13.822c1.162.671,1.017,1.843-.326,2.618L185.446,181.3A5.041,5.041,0,0,1,180.911,181.483Z" transform="translate(-156.211 -123.996)" fill="url(#j)"/><path d="M185.733,181.694,163.7,168.963c-1.136-.656-.993-1.8.318-2.558L213.31,137.94a4.925,4.925,0,0,1,4.431-.184l22.21,12.833c1.136.656.993,1.8-.318,2.558L190.164,181.51A4.925,4.925,0,0,1,185.733,181.694Z" transform="translate(-161.002 -125.75)" fill="url(#k)"/><path d="M185.733,181.694,163.7,168.963c-1.136-.656-.993-1.8.318-2.558L213.31,137.94a4.925,4.925,0,0,1,4.431-.184l22.21,12.833c1.136.656.993,1.8-.318,2.558L190.164,181.51A4.925,4.925,0,0,1,185.733,181.694Z" transform="translate(-161.002 -125.75)" fill="#06033e" opacity="0.4"/><path d="M381.254,156.809l-.858.5c-.664.384-.737.964-.161,1.3l.4.234a2.5,2.5,0,0,0,2.246-.093l.857-.495Z" transform="translate(-315.586 -139.644)" fill="#06033e" opacity="0.4"/><g transform="translate(26.458 36.084)" opacity="0.2"><path d="M249.145,226.209l10.5,6.077a5.488,5.488,0,0,0,4.938-.222h0c1.459-.849,1.613-2.126.344-2.852l-10.5-6.077a5.488,5.488,0,0,0-4.938.222h0C248.031,224.206,247.877,225.483,249.145,226.209Z" transform="translate(-248.286 -222.648)" fill="url(#l)"/></g><path d="M260.926,230.041l-1.472-.85c-.219-.126-.191-.347.062-.492h0a.946.946,0,0,1,.853-.035l1.472.85c.219.126.191.347-.061.493h0A.949.949,0,0,1,260.926,230.041Z" transform="translate(-229.682 -190.79)" fill="#e8975b"/><path d="M273.885,237.522l-3.932-2.27c-.219-.126-.191-.347.061-.492h0a.947.947,0,0,1,.853-.035l3.932,2.27c.219.126.191.347-.061.493h0A.949.949,0,0,1,273.885,237.522Z" transform="translate(-237.164 -195.109)" fill="#e8975b"/><path d="M290.474,247.1l-1.429-.825c-.219-.126-.191-.347.061-.493h0a.947.947,0,0,1,.853-.035l1.429.825c.218.126.191.347-.061.493h0A.949.949,0,0,1,290.474,247.1Z" transform="translate(-250.77 -202.965)" fill="#e8975b"/><g transform="translate(29.786 28.176)" opacity="0.2"><path d="M260.73,198.687l15.619,9.109a5.489,5.489,0,0,0,4.938-.222h0c1.459-.849,1.613-2.126.344-2.853l-15.618-9.109a5.49,5.49,0,0,0-4.938.222h0C259.615,196.683,259.461,197.961,260.73,198.687Z" transform="translate(-259.871 -195.126)" fill="url(#m)"/></g><g transform="translate(35.943 32.687)"><path d="M282.73,211.581a.933.933,0,0,0-.844,0l-.416.242a.257.257,0,0,0,0,.487.932.932,0,0,0,.844,0l.415-.242A.257.257,0,0,0,282.73,211.581Z" transform="translate(-281.296 -211.292)" fill="#e8975b"/><path d="M291.158,210.927a.932.932,0,0,0-.844,0l-2.552,1.474a.257.257,0,0,0,0,.487.932.932,0,0,0,.844,0l2.552-1.473A.257.257,0,0,0,291.158,210.927Z" transform="translate(-285.78 -210.826)" fill="#e8975b"/><path d="M321.445,231.449a.932.932,0,0,0-.844,0l-1.379.8a.257.257,0,0,0,0,.487.933.933,0,0,0,.844,0l1.379-.8A.257.257,0,0,0,321.445,231.449Z" transform="translate(-308.2 -225.451)" fill="#e8975b"/><path d="M314.981,228.162a.933.933,0,0,0-.844,0l-1.206.7a.257.257,0,0,0,0,.487.933.933,0,0,0,.844,0l1.207-.7A.257.257,0,0,0,314.981,228.162Z" transform="translate(-303.716 -223.109)" fill="#e8975b"/><path d="M310.034,221.825a.933.933,0,0,0-.844,0l-2.552,1.474a.257.257,0,0,0,0,.487.932.932,0,0,0,.844,0l2.552-1.474A.257.257,0,0,0,310.034,221.825Z" transform="translate(-299.232 -218.592)" fill="#e8975b"/><path d="M303.2,219.279a.933.933,0,0,0-.844,0l-2.011,1.161a.257.257,0,0,0,0,.487.932.932,0,0,0,.844,0l2.011-1.161A.257.257,0,0,0,303.2,219.279Z" transform="translate(-294.748 -216.778)" fill="#e8975b"/><path d="M296.1,217.264a.933.933,0,0,0-.844,0l-1.206.7a.257.257,0,0,0,0,.487.933.933,0,0,0,.844,0l1.206-.7A.257.257,0,0,0,296.1,217.264Z" transform="translate(-290.264 -215.342)" fill="#e8975b"/></g><g transform="translate(36.953 22.822)"><path d="M285.67,180.056l7.113,4.1a5.489,5.489,0,0,0,4.938-.222h0c1.459-.849,1.613-2.126.344-2.853l-7.113-4.1a5.488,5.488,0,0,0-4.937.222h0C284.556,178.053,284.4,179.33,285.67,180.056Z" transform="translate(-284.811 -176.495)" fill="url(#n)"/></g><path d="M236.661,188.578l-51.182,29.55a5.04,5.04,0,0,1-4.535.188l-23.916-13.822a1.49,1.49,0,0,1-.725-.827,1.243,1.243,0,0,0,.725,1.448l23.916,13.822a5.041,5.041,0,0,0,4.535-.188l51.182-29.55c.885-.511,1.238-1.192,1.051-1.791A2.112,2.112,0,0,1,236.661,188.578Z" transform="translate(-156.244 -161.45)" fill="#fff"/><g transform="translate(11.108 30.56)"><path d="M195.726,206.985l13.231,7.6a5.489,5.489,0,0,0,4.937-.222h0c1.459-.849,1.613-2.126.345-2.852l-13.231-7.6a5.489,5.489,0,0,0-4.938.222h0C194.611,204.981,194.457,206.259,195.726,206.985Z" transform="translate(-194.867 -203.424)" fill="url(#o)"/><g transform="translate(0 7.24)" opacity="0.6"><path d="M195.726,232.182l13.231,7.6a5.488,5.488,0,0,0,4.937-.222h0c1.459-.849,1.613-2.126.345-2.852l-13.231-7.6a5.489,5.489,0,0,0-4.938.222h0C194.611,230.179,194.457,231.456,195.726,232.182Z" transform="translate(-194.867 -228.621)" fill="#020230"/></g><path d="M219.363,217.831l-3.932-2.27c-.219-.126-.191-.347.061-.493h0a.948.948,0,0,1,.853-.036l3.932,2.271c.219.126.191.347-.061.493h0A.949.949,0,0,1,219.363,217.831Z" transform="translate(-209.416 -211.636)" fill="#ba2f2f"/><path d="M235.952,227.409l-1.429-.825c-.219-.126-.191-.347.061-.493h0a.947.947,0,0,1,.853-.035l1.429.825c.219.126.191.347-.062.492h0A.948.948,0,0,1,235.952,227.409Z" transform="translate(-223.023 -219.492)" fill="#ba2f2f"/></g><path d="M215.1,97.072H194.866V129.92h0a1.448,1.448,0,0,0,.855,1.272l13.231,7.6a5.489,5.489,0,0,0,4.938-.222h0a2.178,2.178,0,0,0,1.188-1.44l.02.007Z" transform="translate(-183.759 -97.072)" opacity="0.4" fill="url(#p)" style="mix-blend-mode:lighten;isolation:isolate"/></g><path d="M295.285,182.868l-1.174-.678c-.219-.126-.191-.347.061-.493h0a.948.948,0,0,1,.853-.035l1.174.678c.219.126.191.347-.061.493h0A.947.947,0,0,1,295.285,182.868Z" transform="translate(-254.381 -157.295)" fill="#ba2f2f"/><path d="M306.411,189.292l-3.094-1.786c-.219-.126-.191-.347.061-.493h0a.949.949,0,0,1,.853-.035l3.094,1.786c.219.126.191.347-.061.493h0A.949.949,0,0,1,306.411,189.292Z" transform="translate(-260.941 -161.083)" fill="#ba2f2f"/></g><g transform="translate(187.555 126.191)"><path d="M269.552,200.869a3.9,3.9,0,0,1-3.531,0,1.076,1.076,0,0,1,0-2.039,3.9,3.9,0,0,1,3.531,0A1.076,1.076,0,0,1,269.552,200.869Z" transform="translate(-265.29 -198.408)" fill="#e8975b"/><path d="M270.021,201.689l.954-.551a.424.424,0,0,1,.516.075l.415.79c.072.137-.149.265-.386.223l-1.369-.24C269.926,201.948,269.855,201.785,270.021,201.689Z" transform="translate(-268.596 -200.316)" fill="#ba2f2f"/></g><g transform="translate(188.121 103.729)"><path d="M273.308,120.8l1.19.687a.89.89,0,0,0,.806,0,.245.245,0,0,0,0-.465l-1.19-.687a.892.892,0,0,0-.806,0A.246.246,0,0,0,273.308,120.8Z" transform="translate(-271.451 -120.238)" fill="#e82b88"/><path d="M267.429,124.194l3.36,1.94a.892.892,0,0,0,.806,0,.246.246,0,0,0,0-.465l-3.36-1.94a.892.892,0,0,0-.806,0A.246.246,0,0,0,267.429,124.194Z" transform="translate(-267.262 -122.656)" fill="#e8975b" opacity="0.6"/><path d="M286.731,128.084a.246.246,0,0,0,0-.465l-3.36-1.94a.891.891,0,0,0-.806,0,.246.246,0,0,0,0,.466l3.36,1.94A.892.892,0,0,0,286.731,128.084Z" transform="translate(-278.049 -124.047)" fill="#e8975b" opacity="0.6"/><path d="M301.36,136.064l-.2-.114-.955-.551a.891.891,0,0,0-.806,0,.246.246,0,0,0,0,.465l.954.551.2.114.955.551a.891.891,0,0,0,.806,0,.246.246,0,0,0,0-.466Z" transform="translate(-290.047 -130.974)" fill="#e8975b"/></g><g transform="translate(199.459 151.969)"><path d="M329.108,288.824l4.852,2.8a1.121,1.121,0,0,0,1.014,0,.309.309,0,0,0,0-.585l-4.852-2.8a1.122,1.122,0,0,0-1.014,0A.309.309,0,0,0,329.108,288.824Z" transform="translate(-322.525 -288.117)" fill="#e8975b"/><path d="M321.715,292.507a.309.309,0,0,0,0,.586l7.464,4.309a1.12,1.12,0,0,0,1.014,0,.309.309,0,0,0,0-.585l-7.464-4.309A1.121,1.121,0,0,0,321.715,292.507Z" transform="translate(-317.257 -291.159)" fill="#e8975b" opacity="0.6"/><path d="M314.322,297.36l1.5.864a1.121,1.121,0,0,0,1.014,0,.309.309,0,0,0,0-.585l-1.5-.864a1.12,1.12,0,0,0-1.014,0A.309.309,0,0,0,314.322,297.36Z" transform="translate(-311.988 -294.201)" fill="#e8975b"/><path d="M306.93,301.629l4.224,2.439a1.12,1.12,0,0,0,1.014,0,.309.309,0,0,0,0-.585l-4.225-2.439a1.121,1.121,0,0,0-1.014,0A.309.309,0,0,0,306.93,301.629Z" transform="translate(-306.72 -297.243)" fill="#e82b88"/><path d="M331.2,306.52a.309.309,0,0,0,0-.585l-4.225-2.439a1.12,1.12,0,0,0-1.014,0,.309.309,0,0,0,0,.585l4.225,2.439A1.121,1.121,0,0,0,331.2,306.52Z" transform="translate(-320.284 -298.991)" fill="#e8975b"/><path d="M349.6,316.555l-.248-.143-1.2-.693a1.122,1.122,0,0,0-1.014,0,.309.309,0,0,0,0,.585l1.2.693.248.143,1.2.693a1.119,1.119,0,0,0,1.014,0,.309.309,0,0,0,0-.585Z" transform="translate(-335.371 -307.701)" fill="#e8975b" opacity="0.6"/></g><path d="M410.062,182.587l-.2-.114-.954-.551a.891.891,0,0,0-.806,0,.246.246,0,0,0,0,.465l.954.551.2.114.955.551a.891.891,0,0,0,.806,0,.246.246,0,0,0,0-.466Z" transform="translate(-179.393 -60.4)" fill="#e8975b"/><g transform="translate(210.609 111.033)"><path d="M347.645,146.42l-.2-.114-.955-.551a.892.892,0,0,0-.806,0,.246.246,0,0,0,0,.465l.955.551.2.114.954.551a.89.89,0,0,0,.806,0,.246.246,0,0,0,0-.466Z" transform="translate(-345.52 -145.659)" fill="#e8975b"/><path d="M360.645,153.837l-.2-.114-.955-.551a.891.891,0,0,0-.806,0,.246.246,0,0,0,0,.465l.955.551.2.114.3.176a.892.892,0,0,0,.806,0,.246.246,0,0,0,0-.466Z" transform="translate(-354.784 -150.944)" fill="#e8975b"/></g><g transform="translate(210.092 118.357)"><path d="M343.723,172.57l1.891-1.092-.478-.16.3-.173a2.411,2.411,0,0,0,.728.126l.307.177-2.345,1.354Z" transform="translate(-343.723 -171.145)" fill="#fff"/><path d="M347.042,175.116l.283-.163,1.469-.187.175-.021q.141-.016.192-.025c.035-.005.086-.015.154-.029a1.108,1.108,0,0,0,.174-.048,1,1,0,0,0,.14-.067.339.339,0,0,0,.162-.15q.023-.07-.084-.125a.614.614,0,0,0-.591.093l-.1.056-.4-.229.1-.058a1.709,1.709,0,0,1,.322-.147,1.416,1.416,0,0,1,.327-.068,1.069,1.069,0,0,1,.337.025,1.21,1.21,0,0,1,.332.133c.2.114.294.232.288.352s-.106.237-.3.35a1.365,1.365,0,0,1-.208.1,1.438,1.438,0,0,1-.233.066c-.084.017-.157.03-.219.038s-.145.019-.248.03l-.026,0-.023,0-.025,0-1.217.145.7.406-.324.187Z" transform="translate(-346.088 -173.14)" fill="#fff"/><path d="M353.069,178.639l.38-.22.382.221-.38.22Zm.957-.553.382-.221.382.221-.382.221Z" transform="translate(-350.383 -175.934)" fill="#fff"/><path d="M355.682,179.7q-.314-.181-.29-.368t.341-.37l.084-.049.4.232-.065.038a.594.594,0,0,0-.215.18q-.041.075.082.146a.381.381,0,0,0,.111.043.4.4,0,0,0,.109.008.438.438,0,0,0,.114-.026,1.13,1.13,0,0,0,.118-.049c.036-.018.079-.041.128-.07a.5.5,0,0,0,.224-.2c.024-.061-.011-.122-.106-.184l-.031-.018-.029-.018.336-.195.056.03a.556.556,0,0,0,.3.079.741.741,0,0,0,.316-.111.428.428,0,0,0,.186-.162c.02-.048-.01-.1-.09-.142a.368.368,0,0,0-.106-.041.381.381,0,0,0-.105-.009.5.5,0,0,0-.109.022.935.935,0,0,0-.109.042c-.034.016-.073.036-.115.059l-.08.046-.4-.232.109-.063a1.261,1.261,0,0,1,.624-.176,1.188,1.188,0,0,1,.617.166c.2.114.295.232.294.356s-.1.243-.3.357a1.1,1.1,0,0,1-.418.143.936.936,0,0,1-.4-.032.216.216,0,0,1,.039.247.684.684,0,0,1-.291.263,1.552,1.552,0,0,1-.671.217A1.121,1.121,0,0,1,355.682,179.7Z" transform="translate(-352.038 -176.131)" fill="#fff"/><path d="M361.366,182.75a1.143,1.143,0,0,1-.64-.154c-.2-.114-.286-.237-.265-.369s.133-.258.34-.378l1.032-.6a1.464,1.464,0,0,1,.658-.2,1.133,1.133,0,0,1,.642.157c.2.116.292.24.271.371s-.138.257-.351.38l-1.032.6A1.439,1.439,0,0,1,361.366,182.75Zm-.294-.353a.549.549,0,0,0,.549-.082l1.018-.588c.03-.017.057-.034.08-.049s.047-.033.071-.051a.241.241,0,0,0,.053-.055.174.174,0,0,0,.023-.055.068.068,0,0,0-.014-.056.2.2,0,0,0-.065-.054.331.331,0,0,0-.113-.04.4.4,0,0,0-.115,0,.551.551,0,0,0-.116.028,1.084,1.084,0,0,0-.109.045c-.031.015-.066.034-.1.055l-1.018.588Q360.868,182.279,361.072,182.4Z" transform="translate(-355.649 -178.202)" fill="#fff"/></g></g></g><g transform="translate(89.373 298.166)"><path d="M105.859,208.48a12.42,12.42,0,1,1-14.433-10.007A12.421,12.421,0,0,1,105.859,208.48Z" transform="translate(-81.216 -198.272)" fill="#ffb263"/><g clip-path="url(#q)"><g transform="translate(-3.126 -2.858)"><path d="M91.446,207.139s.773,4.275.184,4.382-2.962-.378-4.21,1.98.894,4.1,2.89,4.2,1.58,5.348-3.151,5.293-8.3-10.528-6.691-15.083,8.3-10.487,11.013-10.673,21.909,6.072,21.909,6.072Z" transform="translate(-80.076 -197.23)" fill="#ffce76"/></g></g></g><g transform="translate(359.545 217.866)"><path d="M185.512,175.607l1.415-6.524s-5.636-.834-6.949,2.5C178.336,175.771,185.512,175.607,185.512,175.607Z" transform="translate(-179.734 -168.99)" fill="#ffb263"/></g><g transform="translate(128.965 365.313)"><path d="M95.653,228.02l3.968-5.263s4.489,3.1,2.964,6.464C100.674,233.433,95.653,228.02,95.653,228.02Z" transform="translate(-95.653 -222.757)" fill="#ffb263"/></g><g transform="translate(85.934 332.413)"><path d="M80.19,213.89c-1.02,2.734,1.281,8.375,9.02,18.615s9.5,11.584,11.022,12.124,24,5.339,24,5.339l2.726-6.307-23.283-7.832s-7.3-16.616-14.175-23.491C87.671,210.505,81.846,209.455,80.19,213.89Z" transform="translate(-79.962 -210.76)" fill="#82cec3"/></g><g transform="translate(350.108 368.229)"><path d="M184.479,229.741l-4.514-5.921s-5.049,3.538-3.307,7.322C178.844,235.886,184.479,229.741,184.479,229.741Z" transform="translate(-176.293 -223.82)" fill="#ffb263"/></g><g transform="translate(353.78 330.805)"><path d="M230.263,213.679c1.171,3.077-1.4,9.464-10.07,21.081s-10.654,13.144-12.368,13.764-27.078,6.181-27.078,6.181l-3.115-7.108,26.242-8.992s8.139-18.813,15.862-26.62C221.792,209.9,228.366,208.68,230.263,213.679Z" transform="translate(-177.632 -210.174)" fill="#ff7352"/></g><g transform="translate(125.213 199.059)"><path d="M97.526,162.162c-2.633-.48-4.138,5.027-2.66,7.983s4.731,2.956,5.323-1.478S100.782,162.751,97.526,162.162Z" transform="translate(-94.285 -162.132)" fill="#ffb263"/></g><g transform="translate(234.622 199.059)"><path d="M137.143,162.162c2.635-.48,4.141,5.027,2.663,7.983s-4.733,2.956-5.323-1.478S133.89,162.751,137.143,162.162Z" transform="translate(-134.181 -162.132)" fill="#ffb263"/></g><g transform="translate(-763.167 -695.096)"><path d="M0,0H61a0,0,0,0,1,0,0V7a5,5,0,0,1-5,5H5A5,5,0,0,1,0,7V0A0,0,0,0,1,0,0Z" transform="translate(915.203 929.407)" fill="#e92939"/><rect width="61" height="12" transform="translate(915.203 917.407)" fill="#33b233"/><path d="M5,0H56a5,5,0,0,1,5,5v7a0,0,0,0,1,0,0H0a0,0,0,0,1,0,0V5A5,5,0,0,1,5,0Z" transform="translate(915.203 905.407)" fill="#ffcb03"/><g transform="matrix(1, 0, 0, 1, 839.7, 836.03)" filter="url(#r)"><path d="M12.056,2.7a1,1,0,0,1,1.888,0l2.078,5.945a1,1,0,0,0,.918.67l6.256.162a1,1,0,0,1,.587,1.79L18.8,15.129a1,1,0,0,0-.347,1.072l1.784,6.074a1,1,0,0,1-1.531,1.1l-5.133-3.571a1,1,0,0,0-1.142,0L7.3,23.378a1,1,0,0,1-1.531-1.1L7.549,16.2A1,1,0,0,0,7.2,15.129L2.217,11.267A1,1,0,0,1,2.8,9.477L9.06,9.315a1,1,0,0,0,.918-.67Z" transform="translate(93.5 75.37)" fill="#fff"/></g></g></g></svg>