<svg xmlns="http://www.w3.org/2000/svg" xmlns:xlink="http://www.w3.org/1999/xlink" width="61.6" height="67.683" viewBox="0 0 61.6 67.683"><defs><linearGradient id="a" x1="0.5" x2="0.5" y2="1" gradientUnits="objectBoundingBox"><stop offset="0" stop-color="#ff5855"/><stop offset="1" stop-color="#ec2378"/></linearGradient><filter id="b" x="8.004" y="0" width="53.596" height="57.439" filterUnits="userSpaceOnUse"><feOffset dy="3" input="SourceAlpha"/><feGaussianBlur stdDeviation="3" result="c"/><feFlood flood-color="#ec2378" flood-opacity="0.243"/><feComposite operator="in" in2="c"/><feComposite in="SourceGraphic"/></filter><linearGradient id="d" x2="-0.231" y2="0.459" xlink:href="#a"/><filter id="e" x="0" y="10.244" width="53.596" height="57.439" filterUnits="userSpaceOnUse"><feOffset dy="3" input="SourceAlpha"/><feGaussianBlur stdDeviation="3" result="f"/><feFlood flood-color="#ec2378" flood-opacity="0.447"/><feComposite operator="in" in2="f"/><feComposite in="SourceGraphic"/></filter></defs><g transform="translate(-969.031 -246.418)"><g transform="matrix(1, 0, 0, 1, 969.03, 246.42)" filter="url(#b)"><path d="M13.4,7.573a5,5,0,0,1,8.677,0l9.111,15.9a5,5,0,0,1-4.338,7.486H8.627a5,5,0,0,1-4.338-7.486Z" transform="translate(17 41.13) rotate(-82)" fill="url(#a)"/></g><g transform="matrix(1, 0, 0, 1, 969.03, 246.42)" filter="url(#e)"><path d="M13.4,7.573a5,5,0,0,1,8.677,0l9.111,15.9a5,5,0,0,1-4.338,7.486H8.627a5,5,0,0,1-4.338-7.486Z" transform="translate(9 51.37) rotate(-82)" fill="url(#d)"/></g></g></svg>