<svg id="Layer_1" data-name="Layer 1" xmlns="http://www.w3.org/2000/svg" xmlns:xlink="http://www.w3.org/1999/xlink" viewBox="0 0 1500 1500"><defs><style>.cls-1{fill:url(#linear-gradient);}.cls-2{fill:url(#linear-gradient-2);}.cls-3{fill:url(#linear-gradient-3);}.cls-4{fill:url(#linear-gradient-4);}.cls-5{fill:url(#linear-gradient-5);}.cls-6{fill:url(#linear-gradient-6);}.cls-7{opacity:0.14;}.cls-8{fill:url(#linear-gradient-7);}.cls-9{fill:url(#linear-gradient-8);}</style><linearGradient id="linear-gradient" x1="696.85" y1="1175.11" x2="1330.29" y2="702.26" gradientUnits="userSpaceOnUse"><stop offset="0" stop-color="#e71582"/><stop offset="1" stop-color="#ff5855"/></linearGradient><linearGradient id="linear-gradient-2" x1="599.91" y1="1041.66" x2="1212.86" y2="584.11" xlink:href="#linear-gradient"/><linearGradient id="linear-gradient-3" x1="810.28" y1="1323.49" x2="1423.23" y2="865.93" xlink:href="#linear-gradient"/><linearGradient id="linear-gradient-4" x1="196.77" y1="501.6" x2="809.72" y2="44.05" xlink:href="#linear-gradient"/><linearGradient id="linear-gradient-5" x1="472.71" y1="871.27" x2="1085.66" y2="413.72" xlink:href="#linear-gradient"/><linearGradient id="linear-gradient-6" x1="432.31" y1="817.15" x2="1045.26" y2="359.59" xlink:href="#linear-gradient"/><linearGradient id="linear-gradient-7" x1="401.94" y1="776.47" x2="1014.89" y2="318.91" xlink:href="#linear-gradient"/><linearGradient id="linear-gradient-8" x1="377.37" y1="743.54" x2="990.32" y2="285.99" xlink:href="#linear-gradient"/></defs><title>UXMM LOGO</title><path class="cls-1" d="M1447.31,840.37a11.36,11.36,0,0,1,11.34,11.34v567.45a11.36,11.36,0,0,1-11.34,11.34H52.69a11.36,11.36,0,0,1-11.34-11.34V851.71a11.36,11.36,0,0,1,11.34-11.34H1447.31m17.17-42.91H35.52C15.9,797.46,0,813.93,0,834.26v602.36c0,20.32,15.9,36.79,35.52,36.79h1429c19.62,0,35.52-16.47,35.52-36.79V834.26c0-20.33-15.9-36.8-35.52-36.8Z"/><path class="cls-2" d="M203.57,1307.91V1005.62a36.08,36.08,0,0,1,36.07-36.09h0a36.07,36.07,0,0,1,35.26,28.53l3.12,14.57q6.15-7.68,11.84-13.7a130.32,130.32,0,0,1,15.69-13.54,105.37,105.37,0,0,1,21.23-12.47,139.69,139.69,0,0,1,27.69-8.32,174.45,174.45,0,0,1,35.23-3.38q40.29,0,64.45,16.32t34,38.18a121.13,121.13,0,0,1,47.07-40.34q28.92-14.16,64.3-14.16,58.14,0,85.37,32.94t27.23,97.61v216.14H631.2V1115.78q0-49.56-10.92-71.58t-41.69-22q-47.07,0-67.68,42.49-8.62,18.78-11.69,45.26v198H418.61V1112.09q0-45.27-12-67.43t-43.38-22.17q-25.55,0-44,12.93a82.06,82.06,0,0,0-28,33.87q-7.08,31.1-7.08,74.51v164.11Z"/><path class="cls-3" d="M791.48,1307.91V1005.62a36.08,36.08,0,0,1,36.07-36.09h0a36.07,36.07,0,0,1,35.26,28.53l3.12,14.57q6.15-7.68,11.85-13.7a128.77,128.77,0,0,1,15.69-13.54,105.3,105.3,0,0,1,21.22-12.47,139.69,139.69,0,0,1,27.69-8.32,174.52,174.52,0,0,1,35.23-3.38q40.29,0,64.45,16.32t34,38.18a121,121,0,0,1,47.07-40.34q28.9-14.16,64.29-14.16,58.15,0,85.38,32.94t27.22,97.61v216.14h-80.91V1115.78q0-49.56-10.92-71.58t-41.69-22q-47.07,0-67.68,42.49-8.61,18.78-11.69,45.26v198h-80.6V1112.09q0-45.27-12-67.43t-43.38-22.17q-25.54,0-44,12.93a82.08,82.08,0,0,0-28,33.87q-7.08,31.1-7.07,74.51v164.11Z"/><path class="cls-4" d="M557,285.94V439.36c0,40.83,2.48,81.67-16.08,111.35-11.13,18.56-26,33.41-44.55,43.31a111.73,111.73,0,0,1-58.15,16.07,110,110,0,0,1-61.86-18.55c-19.8-12.37-34.65-29.69-44.53-50.73-13.62-28.45-12.38-68-12.38-107.64V28.6H193.24V403.48c0,8.66,0,18.56-1.23,28.46,0,53.2-2.48,107.64,24.74,163.31,21,43.3,49.48,76.72,90.32,102.7,39.59,26,82.9,38.34,131.14,38.34,44.55,0,85.37-11.13,121.26-32.17,37.11-21,66.8-50.72,90.31-89.07,34.65-59.39,34.65-117.54,34.65-175.69V28.6H557Z"/><polygon class="cls-5" points="703.94 738 857.78 738 1007.63 496.71 931.29 374.77 703.94 738"/><polygon class="cls-6" points="1157.82 738 1311.64 738 1085.46 376.61 1092.9 388.64 1085.46 376.61 1084.08 374.4 1084.09 374.39 1007.81 251.06 1007.79 251.09 869.22 28.59 715.38 28.59 931.52 374.4 931.29 374.77 1007.63 496.71 1007.79 496.45 1157.82 738"/><polygon class="cls-7" points="931.24 374.19 1007.79 496.45 964.7 565.82 931.24 374.19"/><line class="cls-8" x1="1104.58" y1="341.6" x2="1027.94" y2="219.54"/><polygon class="cls-9" points="1300.2 28.59 1146.38 28.59 1027.94 219.54 1104.58 341.6 1300.2 28.59"/></svg>