<svg id="Layer_1" data-name="Layer 1" xmlns="http://www.w3.org/2000/svg" xmlns:xlink="http://www.w3.org/1999/xlink" viewBox="0 0 1500 1500"><defs><style>.cls-1{fill:url(#linear-gradient);}.cls-2{fill:url(#linear-gradient-2);}.cls-3{fill:url(#linear-gradient-3);}.cls-4{fill:url(#linear-gradient-4);}.cls-5{fill:url(#linear-gradient-5);}.cls-6{fill:url(#linear-gradient-6);}.cls-7{opacity:0.14;}.cls-8{fill:url(#linear-gradient-7);}.cls-9{fill:url(#linear-gradient-8);}</style><linearGradient id="linear-gradient" x1="713.21" y1="1044.54" x2="1151.64" y2="717.27" gradientUnits="userSpaceOnUse"><stop offset="0" stop-color="#e71582"/><stop offset="1" stop-color="#ff5855"/></linearGradient><linearGradient id="linear-gradient-2" x1="646.12" y1="952.17" x2="1070.36" y2="635.49" xlink:href="#linear-gradient"/><linearGradient id="linear-gradient-3" x1="791.72" y1="1147.23" x2="1215.96" y2="830.55" xlink:href="#linear-gradient"/><linearGradient id="linear-gradient-4" x1="367.09" y1="578.39" x2="791.33" y2="261.7" xlink:href="#linear-gradient"/><linearGradient id="linear-gradient-5" x1="558.08" y1="834.24" x2="982.32" y2="517.56" xlink:href="#linear-gradient"/><linearGradient id="linear-gradient-6" x1="530.12" y1="796.78" x2="954.36" y2="480.1" xlink:href="#linear-gradient"/><linearGradient id="linear-gradient-7" x1="509.1" y1="768.63" x2="933.34" y2="451.94" xlink:href="#linear-gradient"/><linearGradient id="linear-gradient-8" x1="492.09" y1="745.84" x2="916.33" y2="429.15" xlink:href="#linear-gradient"/></defs><title>UXMM LOGO</title><path class="cls-1" d="M1232.63,812.86a7.85,7.85,0,0,1,7.84,7.84v392.75a7.85,7.85,0,0,1-7.84,7.85H267.37a7.85,7.85,0,0,1-7.84-7.85V820.7a7.85,7.85,0,0,1,7.84-7.84h965.26m11.88-29.7h-989c-13.58,0-24.58,11.4-24.58,25.46v416.91c0,14.07,11,25.47,24.58,25.47h989c13.58,0,24.58-11.4,24.58-25.47V808.62c0-14.06-11-25.46-24.58-25.46Z"/><path class="cls-2" d="M371.8,1136.45V927.23a25,25,0,0,1,25-25h0A25,25,0,0,1,421.17,922l2.16,10.08q4.26-5.33,8.2-9.48a89.21,89.21,0,0,1,10.86-9.38,73.84,73.84,0,0,1,14.69-8.63,96.82,96.82,0,0,1,19.16-5.75,121.1,121.1,0,0,1,24.38-2.34q27.9,0,44.61,11.29t23.53,26.43a83.86,83.86,0,0,1,32.58-27.92q20-9.79,44.5-9.8,40.24,0,59.09,22.8t18.85,67.55v149.6h-56v-133q0-34.32-7.55-49.55t-28.86-15.24q-32.58,0-46.84,29.41-6,13-8.09,31.33v137H520.64V1000.92q0-31.33-8.3-46.67t-30-15.35q-17.67,0-30.45,9a56.82,56.82,0,0,0-19.37,23.44q-4.9,21.53-4.9,51.57v113.58Z"/><path class="cls-3" d="M778.71,1136.45V927.23a25,25,0,0,1,25-25h0A25,25,0,0,1,828.08,922l2.16,10.08q4.26-5.33,8.2-9.48a89.21,89.21,0,0,1,10.86-9.38A73.84,73.84,0,0,1,864,904.59a96.82,96.82,0,0,1,19.16-5.75,121.1,121.1,0,0,1,24.38-2.34q27.9,0,44.61,11.29t23.53,26.43a83.79,83.79,0,0,1,32.58-27.92q20-9.79,44.5-9.8,40.24,0,59.09,22.8t18.84,67.55v149.6h-56v-133q0-34.32-7.56-49.55t-28.85-15.24q-32.58,0-46.84,29.41-6,13-8.09,31.33v137H927.55V1000.92q0-31.33-8.31-46.67t-30-15.35q-17.67,0-30.45,9A56.74,56.74,0,0,0,839.4,971.3q-4.9,21.53-4.9,51.57v113.58Z"/><path class="cls-4" d="M616.41,429.12V535.31c0,28.25,1.72,56.52-11.13,77.07-7.7,12.84-18,23.12-30.83,30a77.36,77.36,0,0,1-40.25,11.13,76.11,76.11,0,0,1-42.81-12.85,81.47,81.47,0,0,1-30.82-35.11C451.14,585.83,452,558.43,452,531V251H364.65V510.47a159.55,159.55,0,0,1-.85,19.7c0,36.82-1.72,74.5,17.13,113,14.55,30,34.24,53.1,62.51,71.08,27.4,18,57.37,26.54,90.76,26.54,30.84,0,59.09-7.71,83.93-22.27,25.68-14.54,46.23-35.1,62.51-61.64,24-41.11,24-81.36,24-121.6V251H616.41Z"/><polygon class="cls-5" points="718.12 742.01 824.6 742.01 928.31 575 875.47 490.61 718.12 742.01"/><polygon class="cls-6" points="1032.26 742.01 1138.73 742.01 982.18 491.88 987.33 500.2 982.18 491.88 981.23 490.35 981.23 490.34 928.43 404.98 928.42 405 832.52 251 726.04 251 875.63 490.35 875.47 490.61 928.31 575 928.42 574.82 1032.26 742.01"/><polygon class="cls-7" points="875.44 490.2 928.42 574.82 898.6 622.83 875.44 490.2"/><line class="cls-8" x1="995.41" y1="467.64" x2="942.37" y2="383.16"/><polygon class="cls-9" points="1130.81 251 1024.34 251 942.37 383.16 995.41 467.64 1130.81 251"/></svg>