<svg xmlns="http://www.w3.org/2000/svg" width="305.333" height="60" viewBox="0 0 305.333 60"><g transform="translate(-729.909 -89.88)"><path d="M1035.242,103.361l-13.1-13.48h-8.366l21.464,22.091Z" fill="#2eafd3"/><path d="M989.835,89.88l45.407,46.733V128L998.2,89.88Z" fill="#2eafd3"/><path d="M965.891,89.88l58.3,60h8.367l-58.3-60Z" fill="#2eafd3"/><path d="M941.948,89.88l58.3,60h8.367l-58.3-60Z" fill="#2eafd3"/><path d="M918,89.88l58.3,60h8.367l-58.3-60Z" fill="#2eafd3"/><path d="M894.061,89.88l58.3,60h8.367l-58.3-60Z" fill="#2eafd3"/><path d="M870.118,89.88l58.3,60h8.367l-58.3-60Z" fill="#2eafd3"/><path d="M846.175,89.88l58.3,60h8.367l-58.3-60Z" fill="#2eafd3"/><path d="M822.231,89.88l58.3,60H888.9l-58.3-60Z" fill="#2eafd3"/><path d="M798.289,89.88l58.3,60h8.366l-58.3-60Z" fill="#2eafd3"/><path d="M774.346,89.88l58.3,60h8.366l-58.3-60Z" fill="#2eafd3"/><path d="M750.4,89.88l58.3,60h8.366l-58.3-60Z" fill="#2eafd3"/><path d="M729.909,89.88v3.551l54.848,56.449h8.366l-58.3-60Z" fill="#2eafd3"/><path d="M729.909,118.073l30.9,31.807h8.367l-39.272-40.418Z" fill="#2eafd3"/><path d="M729.909,142.715l6.961,7.165h8.367L729.909,134.1Z" fill="#2eafd3"/></g></svg>