<svg xmlns="http://www.w3.org/2000/svg" xmlns:xlink="http://www.w3.org/1999/xlink" width="570.521" height="570.521" viewBox="0 0 570.521 570.521"><defs><clipPath id="a"><circle cx="201.71" cy="201.71" r="201.71" transform="translate(1219.459 106.812) rotate(-45)" fill="rgba(0,0,0,0)"/></clipPath><linearGradient id="b" x1="0.099" y1="0.201" x2="0.901" y2="0.799" gradientUnits="objectBoundingBox"><stop offset="0" stop-color="#da0070"/><stop offset="1" stop-color="#ea4144"/></linearGradient></defs><g transform="translate(-1219.459 178.448)" style="mix-blend-mode:luminosity;isolation:isolate"><g clip-path="url(#a)"><path d="M1266.335-101.01a6.112,6.112,0,0,1-6.113,6.112,6.112,6.112,0,0,1-6.112-6.112,6.113,6.113,0,0,1,6.112-6.113A6.113,6.113,0,0,1,1266.335-101.01Z" fill="url(#b)"/><path d="M1303.01-101.01A6.112,6.112,0,0,1,1296.9-94.9a6.112,6.112,0,0,1-6.113-6.112,6.113,6.113,0,0,1,6.113-6.113A6.113,6.113,0,0,1,1303.01-101.01Z" fill="url(#b)"/><path d="M1339.684-101.01a6.112,6.112,0,0,1-6.112,6.112,6.112,6.112,0,0,1-6.113-6.112,6.113,6.113,0,0,1,6.113-6.113A6.113,6.113,0,0,1,1339.684-101.01Z" fill="url(#b)"/><path d="M1376.358-101.01a6.112,6.112,0,0,1-6.112,6.112,6.111,6.111,0,0,1-6.112-6.112,6.112,6.112,0,0,1,6.112-6.113A6.112,6.112,0,0,1,1376.358-101.01Z" fill="url(#b)"/><path d="M1413.033-101.01a6.111,6.111,0,0,1-6.112,6.112,6.112,6.112,0,0,1-6.113-6.112,6.113,6.113,0,0,1,6.113-6.113A6.112,6.112,0,0,1,1413.033-101.01Z" fill="url(#b)"/><path d="M1449.707-101.01a6.112,6.112,0,0,1-6.112,6.112,6.111,6.111,0,0,1-6.112-6.112,6.112,6.112,0,0,1,6.112-6.113A6.112,6.112,0,0,1,1449.707-101.01Z" fill="url(#b)"/><path d="M1486.382-101.01a6.112,6.112,0,0,1-6.113,6.112,6.112,6.112,0,0,1-6.112-6.112,6.113,6.113,0,0,1,6.112-6.113A6.113,6.113,0,0,1,1486.382-101.01Z" fill="url(#b)"/><path d="M1523.057-101.01a6.112,6.112,0,0,1-6.113,6.112,6.112,6.112,0,0,1-6.113-6.112,6.113,6.113,0,0,1,6.113-6.113A6.113,6.113,0,0,1,1523.057-101.01Z" fill="url(#b)"/><path d="M1559.731-101.01a6.112,6.112,0,0,1-6.112,6.112,6.112,6.112,0,0,1-6.113-6.112,6.113,6.113,0,0,1,6.113-6.113A6.113,6.113,0,0,1,1559.731-101.01Z" fill="url(#b)"/><path d="M1596.405-101.01a6.112,6.112,0,0,1-6.112,6.112,6.111,6.111,0,0,1-6.112-6.112,6.112,6.112,0,0,1,6.112-6.113A6.112,6.112,0,0,1,1596.405-101.01Z" fill="url(#b)"/><path d="M1633.08-101.01a6.112,6.112,0,0,1-6.113,6.112,6.112,6.112,0,0,1-6.112-6.112,6.113,6.113,0,0,1,6.112-6.113A6.113,6.113,0,0,1,1633.08-101.01Z" fill="url(#b)"/><path d="M1669.754-101.01a6.112,6.112,0,0,1-6.112,6.112,6.111,6.111,0,0,1-6.112-6.112,6.112,6.112,0,0,1,6.112-6.113A6.112,6.112,0,0,1,1669.754-101.01Z" fill="url(#b)"/><path d="M1706.429-101.01a6.112,6.112,0,0,1-6.113,6.112,6.112,6.112,0,0,1-6.112-6.112,6.113,6.113,0,0,1,6.112-6.113A6.113,6.113,0,0,1,1706.429-101.01Z" fill="url(#b)"/><path d="M1743.1-101.01a6.112,6.112,0,0,1-6.113,6.112,6.111,6.111,0,0,1-6.112-6.112,6.112,6.112,0,0,1,6.112-6.113A6.113,6.113,0,0,1,1743.1-101.01Z" fill="url(#b)"/><path d="M1779.778-101.01a6.112,6.112,0,0,1-6.112,6.112,6.112,6.112,0,0,1-6.113-6.112,6.113,6.113,0,0,1,6.113-6.113A6.113,6.113,0,0,1,1779.778-101.01Z" fill="url(#b)"/><path d="M1816.452-101.01a6.112,6.112,0,0,1-6.112,6.112,6.111,6.111,0,0,1-6.112-6.112,6.112,6.112,0,0,1,6.112-6.113A6.112,6.112,0,0,1,1816.452-101.01Z" fill="url(#b)"/><path d="M1266.335-70.448a6.112,6.112,0,0,1-6.113,6.112,6.112,6.112,0,0,1-6.112-6.112,6.112,6.112,0,0,1,6.112-6.112A6.112,6.112,0,0,1,1266.335-70.448Z" fill="url(#b)"/><path d="M1303.01-70.448a6.112,6.112,0,0,1-6.113,6.112,6.112,6.112,0,0,1-6.113-6.112,6.112,6.112,0,0,1,6.113-6.112A6.112,6.112,0,0,1,1303.01-70.448Z" fill="url(#b)"/><path d="M1339.684-70.448a6.112,6.112,0,0,1-6.112,6.112,6.112,6.112,0,0,1-6.113-6.112,6.112,6.112,0,0,1,6.113-6.112A6.112,6.112,0,0,1,1339.684-70.448Z" fill="url(#b)"/><path d="M1376.358-70.448a6.112,6.112,0,0,1-6.112,6.112,6.111,6.111,0,0,1-6.112-6.112,6.111,6.111,0,0,1,6.112-6.112A6.112,6.112,0,0,1,1376.358-70.448Z" fill="url(#b)"/><path d="M1413.033-70.448a6.111,6.111,0,0,1-6.112,6.112,6.112,6.112,0,0,1-6.113-6.112,6.112,6.112,0,0,1,6.113-6.112A6.111,6.111,0,0,1,1413.033-70.448Z" fill="url(#b)"/><path d="M1449.707-70.448a6.112,6.112,0,0,1-6.112,6.112,6.111,6.111,0,0,1-6.112-6.112,6.111,6.111,0,0,1,6.112-6.112A6.112,6.112,0,0,1,1449.707-70.448Z" fill="url(#b)"/><path d="M1486.382-70.448a6.112,6.112,0,0,1-6.113,6.112,6.112,6.112,0,0,1-6.112-6.112,6.112,6.112,0,0,1,6.112-6.112A6.112,6.112,0,0,1,1486.382-70.448Z" fill="url(#b)"/><path d="M1523.057-70.448a6.112,6.112,0,0,1-6.113,6.112,6.112,6.112,0,0,1-6.113-6.112,6.112,6.112,0,0,1,6.113-6.112A6.112,6.112,0,0,1,1523.057-70.448Z" fill="url(#b)"/><path d="M1559.731-70.448a6.112,6.112,0,0,1-6.112,6.112,6.112,6.112,0,0,1-6.113-6.112,6.112,6.112,0,0,1,6.113-6.112A6.112,6.112,0,0,1,1559.731-70.448Z" fill="url(#b)"/><path d="M1596.405-70.448a6.112,6.112,0,0,1-6.112,6.112,6.111,6.111,0,0,1-6.112-6.112,6.111,6.111,0,0,1,6.112-6.112A6.112,6.112,0,0,1,1596.405-70.448Z" fill="url(#b)"/><path d="M1633.08-70.448a6.112,6.112,0,0,1-6.113,6.112,6.112,6.112,0,0,1-6.112-6.112,6.112,6.112,0,0,1,6.112-6.112A6.112,6.112,0,0,1,1633.08-70.448Z" fill="url(#b)"/><path d="M1669.754-70.448a6.112,6.112,0,0,1-6.112,6.112,6.111,6.111,0,0,1-6.112-6.112,6.111,6.111,0,0,1,6.112-6.112A6.112,6.112,0,0,1,1669.754-70.448Z" fill="url(#b)"/><path d="M1706.429-70.448a6.112,6.112,0,0,1-6.113,6.112,6.112,6.112,0,0,1-6.112-6.112,6.112,6.112,0,0,1,6.112-6.112A6.112,6.112,0,0,1,1706.429-70.448Z" fill="url(#b)"/><path d="M1743.1-70.448a6.112,6.112,0,0,1-6.113,6.112,6.111,6.111,0,0,1-6.112-6.112,6.111,6.111,0,0,1,6.112-6.112A6.112,6.112,0,0,1,1743.1-70.448Z" fill="url(#b)"/><path d="M1779.778-70.448a6.112,6.112,0,0,1-6.112,6.112,6.112,6.112,0,0,1-6.113-6.112,6.112,6.112,0,0,1,6.113-6.112A6.112,6.112,0,0,1,1779.778-70.448Z" fill="url(#b)"/><path d="M1816.452-70.448a6.112,6.112,0,0,1-6.112,6.112,6.111,6.111,0,0,1-6.112-6.112,6.111,6.111,0,0,1,6.112-6.112A6.112,6.112,0,0,1,1816.452-70.448Z" fill="url(#b)"/><path d="M1266.335-39.886a6.112,6.112,0,0,1-6.113,6.112,6.112,6.112,0,0,1-6.112-6.112A6.112,6.112,0,0,1,1260.222-46,6.112,6.112,0,0,1,1266.335-39.886Z" fill="url(#b)"/><path d="M1303.01-39.886a6.112,6.112,0,0,1-6.113,6.112,6.112,6.112,0,0,1-6.113-6.112A6.112,6.112,0,0,1,1296.9-46,6.112,6.112,0,0,1,1303.01-39.886Z" fill="url(#b)"/><path d="M1339.684-39.886a6.112,6.112,0,0,1-6.112,6.112,6.112,6.112,0,0,1-6.113-6.112A6.112,6.112,0,0,1,1333.572-46,6.112,6.112,0,0,1,1339.684-39.886Z" fill="url(#b)"/><path d="M1376.358-39.886a6.112,6.112,0,0,1-6.112,6.112,6.111,6.111,0,0,1-6.112-6.112A6.111,6.111,0,0,1,1370.246-46,6.112,6.112,0,0,1,1376.358-39.886Z" fill="url(#b)"/><path d="M1413.033-39.886a6.111,6.111,0,0,1-6.112,6.112,6.112,6.112,0,0,1-6.113-6.112A6.112,6.112,0,0,1,1406.921-46,6.111,6.111,0,0,1,1413.033-39.886Z" fill="url(#b)"/><path d="M1449.707-39.886a6.112,6.112,0,0,1-6.112,6.112,6.111,6.111,0,0,1-6.112-6.112A6.111,6.111,0,0,1,1443.595-46,6.112,6.112,0,0,1,1449.707-39.886Z" fill="url(#b)"/><path d="M1486.382-39.886a6.112,6.112,0,0,1-6.113,6.112,6.112,6.112,0,0,1-6.112-6.112A6.112,6.112,0,0,1,1480.269-46,6.112,6.112,0,0,1,1486.382-39.886Z" fill="url(#b)"/><path d="M1523.057-39.886a6.112,6.112,0,0,1-6.113,6.112,6.112,6.112,0,0,1-6.113-6.112A6.112,6.112,0,0,1,1516.944-46,6.112,6.112,0,0,1,1523.057-39.886Z" fill="url(#b)"/><path d="M1559.731-39.886a6.112,6.112,0,0,1-6.112,6.112,6.112,6.112,0,0,1-6.113-6.112A6.112,6.112,0,0,1,1553.619-46,6.112,6.112,0,0,1,1559.731-39.886Z" fill="url(#b)"/><path d="M1596.405-39.886a6.112,6.112,0,0,1-6.112,6.112,6.111,6.111,0,0,1-6.112-6.112A6.111,6.111,0,0,1,1590.293-46,6.112,6.112,0,0,1,1596.405-39.886Z" fill="url(#b)"/><path d="M1633.08-39.886a6.112,6.112,0,0,1-6.113,6.112,6.112,6.112,0,0,1-6.112-6.112A6.112,6.112,0,0,1,1626.967-46,6.112,6.112,0,0,1,1633.08-39.886Z" fill="url(#b)"/><path d="M1669.754-39.886a6.112,6.112,0,0,1-6.112,6.112,6.111,6.111,0,0,1-6.112-6.112A6.111,6.111,0,0,1,1663.642-46,6.112,6.112,0,0,1,1669.754-39.886Z" fill="url(#b)"/><path d="M1706.429-39.886a6.112,6.112,0,0,1-6.113,6.112,6.112,6.112,0,0,1-6.112-6.112A6.112,6.112,0,0,1,1700.316-46,6.112,6.112,0,0,1,1706.429-39.886Z" fill="url(#b)"/><path d="M1743.1-39.886a6.112,6.112,0,0,1-6.113,6.112,6.111,6.111,0,0,1-6.112-6.112A6.111,6.111,0,0,1,1736.991-46,6.112,6.112,0,0,1,1743.1-39.886Z" fill="url(#b)"/><path d="M1779.778-39.886a6.112,6.112,0,0,1-6.112,6.112,6.112,6.112,0,0,1-6.113-6.112A6.112,6.112,0,0,1,1773.666-46,6.112,6.112,0,0,1,1779.778-39.886Z" fill="url(#b)"/><path d="M1816.452-39.886a6.112,6.112,0,0,1-6.112,6.112,6.111,6.111,0,0,1-6.112-6.112A6.111,6.111,0,0,1,1810.34-46,6.112,6.112,0,0,1,1816.452-39.886Z" fill="url(#b)"/><path d="M1266.335-9.324a6.113,6.113,0,0,1-6.113,6.113,6.113,6.113,0,0,1-6.112-6.113,6.112,6.112,0,0,1,6.112-6.112A6.112,6.112,0,0,1,1266.335-9.324Z" fill="url(#b)"/><circle cx="6.113" cy="6.113" r="6.113" transform="translate(1290.784 -15.436)" fill="url(#b)"/><path d="M1339.684-9.324a6.113,6.113,0,0,1-6.112,6.113,6.113,6.113,0,0,1-6.113-6.113,6.112,6.112,0,0,1,6.113-6.112A6.112,6.112,0,0,1,1339.684-9.324Z" fill="url(#b)"/><path d="M1376.358-9.324a6.112,6.112,0,0,1-6.112,6.113,6.112,6.112,0,0,1-6.112-6.113,6.111,6.111,0,0,1,6.112-6.112A6.112,6.112,0,0,1,1376.358-9.324Z" fill="url(#b)"/><circle cx="6.113" cy="6.113" r="6.113" transform="translate(1400.808 -15.436)" fill="url(#b)"/><path d="M1449.707-9.324a6.112,6.112,0,0,1-6.112,6.113,6.112,6.112,0,0,1-6.112-6.113,6.111,6.111,0,0,1,6.112-6.112A6.112,6.112,0,0,1,1449.707-9.324Z" fill="url(#b)"/><path d="M1486.382-9.324a6.113,6.113,0,0,1-6.113,6.113,6.113,6.113,0,0,1-6.112-6.113,6.112,6.112,0,0,1,6.112-6.112A6.112,6.112,0,0,1,1486.382-9.324Z" fill="url(#b)"/><circle cx="6.113" cy="6.113" r="6.113" transform="translate(1510.831 -15.436)" fill="url(#b)"/><path d="M1559.731-9.324a6.113,6.113,0,0,1-6.112,6.113,6.113,6.113,0,0,1-6.113-6.113,6.112,6.112,0,0,1,6.113-6.112A6.112,6.112,0,0,1,1559.731-9.324Z" fill="url(#b)"/><path d="M1596.405-9.324a6.112,6.112,0,0,1-6.112,6.113,6.112,6.112,0,0,1-6.112-6.113,6.111,6.111,0,0,1,6.112-6.112A6.112,6.112,0,0,1,1596.405-9.324Z" fill="url(#b)"/><path d="M1633.08-9.324a6.113,6.113,0,0,1-6.113,6.113,6.113,6.113,0,0,1-6.112-6.113,6.112,6.112,0,0,1,6.112-6.112A6.112,6.112,0,0,1,1633.08-9.324Z" fill="url(#b)"/><path d="M1669.754-9.324a6.112,6.112,0,0,1-6.112,6.113,6.112,6.112,0,0,1-6.112-6.113,6.111,6.111,0,0,1,6.112-6.112A6.112,6.112,0,0,1,1669.754-9.324Z" fill="url(#b)"/><path d="M1706.429-9.324a6.113,6.113,0,0,1-6.113,6.113,6.113,6.113,0,0,1-6.112-6.113,6.112,6.112,0,0,1,6.112-6.112A6.112,6.112,0,0,1,1706.429-9.324Z" fill="url(#b)"/><path d="M1743.1-9.324a6.113,6.113,0,0,1-6.113,6.113,6.112,6.112,0,0,1-6.112-6.113,6.111,6.111,0,0,1,6.112-6.112A6.112,6.112,0,0,1,1743.1-9.324Z" fill="url(#b)"/><path d="M1779.778-9.324a6.113,6.113,0,0,1-6.112,6.113,6.113,6.113,0,0,1-6.113-6.113,6.112,6.112,0,0,1,6.113-6.112A6.112,6.112,0,0,1,1779.778-9.324Z" fill="url(#b)"/><path d="M1816.452-9.324a6.112,6.112,0,0,1-6.112,6.113,6.112,6.112,0,0,1-6.112-6.113,6.111,6.111,0,0,1,6.112-6.112A6.112,6.112,0,0,1,1816.452-9.324Z" fill="url(#b)"/><path d="M1266.335,21.238a6.112,6.112,0,1,1-6.113-6.112A6.113,6.113,0,0,1,1266.335,21.238Z" fill="url(#b)"/><circle cx="6.113" cy="6.113" r="6.113" transform="translate(1290.784 15.126)" fill="url(#b)"/><path d="M1339.684,21.238a6.112,6.112,0,1,1-6.112-6.112A6.113,6.113,0,0,1,1339.684,21.238Z" fill="url(#b)"/><path d="M1376.358,21.238a6.112,6.112,0,1,1-6.112-6.112A6.112,6.112,0,0,1,1376.358,21.238Z" fill="url(#b)"/><circle cx="6.113" cy="6.113" r="6.113" transform="translate(1400.808 15.126)" fill="url(#b)"/><path d="M1449.707,21.238a6.112,6.112,0,1,1-6.112-6.112A6.112,6.112,0,0,1,1449.707,21.238Z" fill="url(#b)"/><path d="M1486.382,21.238a6.112,6.112,0,1,1-6.113-6.112A6.113,6.113,0,0,1,1486.382,21.238Z" fill="url(#b)"/><circle cx="6.113" cy="6.113" r="6.113" transform="translate(1510.831 15.126)" fill="url(#b)"/><path d="M1559.731,21.238a6.112,6.112,0,1,1-6.112-6.112A6.113,6.113,0,0,1,1559.731,21.238Z" fill="url(#b)"/><path d="M1596.405,21.238a6.112,6.112,0,1,1-6.112-6.112A6.112,6.112,0,0,1,1596.405,21.238Z" fill="url(#b)"/><path d="M1633.08,21.238a6.112,6.112,0,1,1-6.113-6.112A6.113,6.113,0,0,1,1633.08,21.238Z" fill="url(#b)"/><path d="M1669.754,21.238a6.112,6.112,0,1,1-6.112-6.112A6.112,6.112,0,0,1,1669.754,21.238Z" fill="url(#b)"/><path d="M1706.429,21.238a6.112,6.112,0,1,1-6.113-6.112A6.113,6.113,0,0,1,1706.429,21.238Z" fill="url(#b)"/><path d="M1743.1,21.238a6.112,6.112,0,1,1-6.113-6.112A6.113,6.113,0,0,1,1743.1,21.238Z" fill="url(#b)"/><path d="M1779.778,21.238a6.112,6.112,0,1,1-6.112-6.112A6.113,6.113,0,0,1,1779.778,21.238Z" fill="url(#b)"/><path d="M1816.452,21.238a6.112,6.112,0,1,1-6.112-6.112A6.112,6.112,0,0,1,1816.452,21.238Z" fill="url(#b)"/><path d="M1266.335,51.8a6.112,6.112,0,1,1-6.113-6.112A6.113,6.113,0,0,1,1266.335,51.8Z" fill="url(#b)"/><circle cx="6.113" cy="6.113" r="6.113" transform="translate(1290.784 45.688)" fill="url(#b)"/><path d="M1339.684,51.8a6.112,6.112,0,1,1-6.112-6.112A6.113,6.113,0,0,1,1339.684,51.8Z" fill="url(#b)"/><path d="M1376.358,51.8a6.112,6.112,0,1,1-6.112-6.112A6.112,6.112,0,0,1,1376.358,51.8Z" fill="url(#b)"/><circle cx="6.113" cy="6.113" r="6.113" transform="translate(1400.808 45.688)" fill="url(#b)"/><path d="M1449.707,51.8a6.112,6.112,0,1,1-6.112-6.112A6.112,6.112,0,0,1,1449.707,51.8Z" fill="url(#b)"/><path d="M1486.382,51.8a6.112,6.112,0,1,1-6.113-6.112A6.113,6.113,0,0,1,1486.382,51.8Z" fill="url(#b)"/><circle cx="6.113" cy="6.113" r="6.113" transform="translate(1510.831 45.688)" fill="url(#b)"/><path d="M1559.731,51.8a6.112,6.112,0,1,1-6.112-6.112A6.113,6.113,0,0,1,1559.731,51.8Z" fill="url(#b)"/><path d="M1596.405,51.8a6.112,6.112,0,1,1-6.112-6.112A6.112,6.112,0,0,1,1596.405,51.8Z" fill="url(#b)"/><path d="M1633.08,51.8a6.112,6.112,0,1,1-6.113-6.112A6.113,6.113,0,0,1,1633.08,51.8Z" fill="url(#b)"/><path d="M1669.754,51.8a6.112,6.112,0,1,1-6.112-6.112A6.112,6.112,0,0,1,1669.754,51.8Z" fill="url(#b)"/><path d="M1706.429,51.8a6.112,6.112,0,1,1-6.113-6.112A6.113,6.113,0,0,1,1706.429,51.8Z" fill="url(#b)"/><path d="M1743.1,51.8a6.112,6.112,0,1,1-6.113-6.112A6.113,6.113,0,0,1,1743.1,51.8Z" fill="url(#b)"/><path d="M1779.778,51.8a6.112,6.112,0,1,1-6.112-6.112A6.113,6.113,0,0,1,1779.778,51.8Z" fill="url(#b)"/><path d="M1816.452,51.8a6.112,6.112,0,1,1-6.112-6.112A6.112,6.112,0,0,1,1816.452,51.8Z" fill="url(#b)"/><path d="M1266.335,82.362a6.112,6.112,0,1,1-6.113-6.112A6.113,6.113,0,0,1,1266.335,82.362Z" fill="url(#b)"/><path d="M1303.01,82.362a6.113,6.113,0,1,1-6.113-6.112A6.113,6.113,0,0,1,1303.01,82.362Z" fill="url(#b)"/><path d="M1339.684,82.362a6.112,6.112,0,1,1-6.112-6.112A6.113,6.113,0,0,1,1339.684,82.362Z" fill="url(#b)"/><path d="M1376.358,82.362a6.112,6.112,0,1,1-6.112-6.112A6.112,6.112,0,0,1,1376.358,82.362Z" fill="url(#b)"/><path d="M1413.033,82.362a6.112,6.112,0,1,1-6.112-6.112A6.112,6.112,0,0,1,1413.033,82.362Z" fill="url(#b)"/><path d="M1449.707,82.362a6.112,6.112,0,1,1-6.112-6.112A6.112,6.112,0,0,1,1449.707,82.362Z" fill="url(#b)"/><path d="M1486.382,82.362a6.112,6.112,0,1,1-6.113-6.112A6.113,6.113,0,0,1,1486.382,82.362Z" fill="url(#b)"/><path d="M1523.057,82.362a6.113,6.113,0,1,1-6.113-6.112A6.113,6.113,0,0,1,1523.057,82.362Z" fill="url(#b)"/><path d="M1559.731,82.362a6.112,6.112,0,1,1-6.112-6.112A6.113,6.113,0,0,1,1559.731,82.362Z" fill="url(#b)"/><path d="M1596.405,82.362a6.112,6.112,0,1,1-6.112-6.112A6.112,6.112,0,0,1,1596.405,82.362Z" fill="url(#b)"/><path d="M1633.08,82.362a6.112,6.112,0,1,1-6.113-6.112A6.113,6.113,0,0,1,1633.08,82.362Z" fill="url(#b)"/><path d="M1669.754,82.362a6.112,6.112,0,1,1-6.112-6.112A6.112,6.112,0,0,1,1669.754,82.362Z" fill="url(#b)"/><path d="M1706.429,82.362a6.112,6.112,0,1,1-6.113-6.112A6.113,6.113,0,0,1,1706.429,82.362Z" fill="url(#b)"/><path d="M1743.1,82.362a6.112,6.112,0,1,1-6.113-6.112A6.113,6.113,0,0,1,1743.1,82.362Z" fill="url(#b)"/><path d="M1779.778,82.362a6.112,6.112,0,1,1-6.112-6.112A6.113,6.113,0,0,1,1779.778,82.362Z" fill="url(#b)"/><path d="M1816.452,82.362a6.112,6.112,0,1,1-6.112-6.112A6.112,6.112,0,0,1,1816.452,82.362Z" fill="url(#b)"/><path d="M1266.335,112.924a6.112,6.112,0,1,1-6.113-6.112A6.113,6.113,0,0,1,1266.335,112.924Z" fill="url(#b)"/><path d="M1303.01,112.924a6.113,6.113,0,1,1-6.113-6.112A6.113,6.113,0,0,1,1303.01,112.924Z" fill="url(#b)"/><path d="M1339.684,112.924a6.112,6.112,0,1,1-6.112-6.112A6.113,6.113,0,0,1,1339.684,112.924Z" fill="url(#b)"/><path d="M1376.358,112.924a6.112,6.112,0,1,1-6.112-6.112A6.112,6.112,0,0,1,1376.358,112.924Z" fill="url(#b)"/><path d="M1413.033,112.924a6.112,6.112,0,1,1-6.112-6.112A6.112,6.112,0,0,1,1413.033,112.924Z" fill="url(#b)"/><path d="M1449.707,112.924a6.112,6.112,0,1,1-6.112-6.112A6.112,6.112,0,0,1,1449.707,112.924Z" fill="url(#b)"/><path d="M1486.382,112.924a6.112,6.112,0,1,1-6.113-6.112A6.113,6.113,0,0,1,1486.382,112.924Z" fill="url(#b)"/><path d="M1523.057,112.924a6.113,6.113,0,1,1-6.113-6.112A6.113,6.113,0,0,1,1523.057,112.924Z" fill="url(#b)"/><path d="M1559.731,112.924a6.112,6.112,0,1,1-6.112-6.112A6.113,6.113,0,0,1,1559.731,112.924Z" fill="url(#b)"/><path d="M1596.405,112.924a6.112,6.112,0,1,1-6.112-6.112A6.112,6.112,0,0,1,1596.405,112.924Z" fill="url(#b)"/><path d="M1633.08,112.924a6.112,6.112,0,1,1-6.113-6.112A6.113,6.113,0,0,1,1633.08,112.924Z" fill="url(#b)"/><path d="M1669.754,112.924a6.112,6.112,0,1,1-6.112-6.112A6.112,6.112,0,0,1,1669.754,112.924Z" fill="url(#b)"/><path d="M1706.429,112.924a6.112,6.112,0,1,1-6.113-6.112A6.113,6.113,0,0,1,1706.429,112.924Z" fill="url(#b)"/><path d="M1743.1,112.924a6.112,6.112,0,1,1-6.113-6.112A6.113,6.113,0,0,1,1743.1,112.924Z" fill="url(#b)"/><path d="M1779.778,112.924a6.112,6.112,0,1,1-6.112-6.112A6.113,6.113,0,0,1,1779.778,112.924Z" fill="url(#b)"/><path d="M1816.452,112.924a6.112,6.112,0,1,1-6.112-6.112A6.112,6.112,0,0,1,1816.452,112.924Z" fill="url(#b)"/><path d="M1266.335,143.486a6.112,6.112,0,1,1-6.113-6.112A6.112,6.112,0,0,1,1266.335,143.486Z" fill="url(#b)"/><path d="M1303.01,143.486a6.113,6.113,0,1,1-6.113-6.112A6.113,6.113,0,0,1,1303.01,143.486Z" fill="url(#b)"/><path d="M1339.684,143.486a6.112,6.112,0,1,1-6.112-6.112A6.112,6.112,0,0,1,1339.684,143.486Z" fill="url(#b)"/><path d="M1376.358,143.486a6.112,6.112,0,1,1-6.112-6.112A6.112,6.112,0,0,1,1376.358,143.486Z" fill="url(#b)"/><path d="M1413.033,143.486a6.112,6.112,0,1,1-6.112-6.112A6.112,6.112,0,0,1,1413.033,143.486Z" fill="url(#b)"/><path d="M1449.707,143.486a6.112,6.112,0,1,1-6.112-6.112A6.112,6.112,0,0,1,1449.707,143.486Z" fill="url(#b)"/><path d="M1486.382,143.486a6.112,6.112,0,1,1-6.113-6.112A6.112,6.112,0,0,1,1486.382,143.486Z" fill="url(#b)"/><path d="M1523.057,143.486a6.113,6.113,0,1,1-6.113-6.112A6.113,6.113,0,0,1,1523.057,143.486Z" fill="url(#b)"/><path d="M1559.731,143.486a6.112,6.112,0,1,1-6.112-6.112A6.112,6.112,0,0,1,1559.731,143.486Z" fill="url(#b)"/><path d="M1596.405,143.486a6.112,6.112,0,1,1-6.112-6.112A6.112,6.112,0,0,1,1596.405,143.486Z" fill="url(#b)"/><path d="M1633.08,143.486a6.112,6.112,0,1,1-6.113-6.112A6.112,6.112,0,0,1,1633.08,143.486Z" fill="url(#b)"/><path d="M1669.754,143.486a6.112,6.112,0,1,1-6.112-6.112A6.112,6.112,0,0,1,1669.754,143.486Z" fill="url(#b)"/><path d="M1706.429,143.486a6.112,6.112,0,1,1-6.113-6.112A6.112,6.112,0,0,1,1706.429,143.486Z" fill="url(#b)"/><path d="M1743.1,143.486a6.112,6.112,0,1,1-6.113-6.112A6.113,6.113,0,0,1,1743.1,143.486Z" fill="url(#b)"/><path d="M1779.778,143.486a6.112,6.112,0,1,1-6.112-6.112A6.112,6.112,0,0,1,1779.778,143.486Z" fill="url(#b)"/><path d="M1816.452,143.486a6.112,6.112,0,1,1-6.112-6.112A6.112,6.112,0,0,1,1816.452,143.486Z" fill="url(#b)"/><path d="M1266.335,174.049a6.112,6.112,0,1,1-6.113-6.113A6.112,6.112,0,0,1,1266.335,174.049Z" fill="url(#b)"/><path d="M1303.01,174.049a6.113,6.113,0,1,1-6.113-6.113A6.112,6.112,0,0,1,1303.01,174.049Z" fill="url(#b)"/><path d="M1339.684,174.049a6.112,6.112,0,1,1-6.112-6.113A6.112,6.112,0,0,1,1339.684,174.049Z" fill="url(#b)"/><path d="M1376.358,174.049a6.112,6.112,0,1,1-6.112-6.113A6.112,6.112,0,0,1,1376.358,174.049Z" fill="url(#b)"/><path d="M1413.033,174.049a6.112,6.112,0,1,1-6.112-6.113A6.111,6.111,0,0,1,1413.033,174.049Z" fill="url(#b)"/><path d="M1449.707,174.049a6.112,6.112,0,1,1-6.112-6.113A6.112,6.112,0,0,1,1449.707,174.049Z" fill="url(#b)"/><path d="M1486.382,174.049a6.112,6.112,0,1,1-6.113-6.113A6.112,6.112,0,0,1,1486.382,174.049Z" fill="url(#b)"/><path d="M1523.057,174.049a6.113,6.113,0,1,1-6.113-6.113A6.112,6.112,0,0,1,1523.057,174.049Z" fill="url(#b)"/><path d="M1559.731,174.049a6.112,6.112,0,1,1-6.112-6.113A6.112,6.112,0,0,1,1559.731,174.049Z" fill="url(#b)"/><path d="M1596.405,174.049a6.112,6.112,0,1,1-6.112-6.113A6.112,6.112,0,0,1,1596.405,174.049Z" fill="url(#b)"/><path d="M1633.08,174.049a6.112,6.112,0,1,1-6.113-6.113A6.112,6.112,0,0,1,1633.08,174.049Z" fill="url(#b)"/><path d="M1669.754,174.049a6.112,6.112,0,1,1-6.112-6.113A6.112,6.112,0,0,1,1669.754,174.049Z" fill="url(#b)"/><path d="M1706.429,174.049a6.112,6.112,0,1,1-6.113-6.113A6.112,6.112,0,0,1,1706.429,174.049Z" fill="url(#b)"/><path d="M1743.1,174.049a6.112,6.112,0,1,1-6.113-6.113A6.112,6.112,0,0,1,1743.1,174.049Z" fill="url(#b)"/><path d="M1779.778,174.049a6.112,6.112,0,1,1-6.112-6.113A6.112,6.112,0,0,1,1779.778,174.049Z" fill="url(#b)"/><path d="M1816.452,174.049a6.112,6.112,0,1,1-6.112-6.113A6.112,6.112,0,0,1,1816.452,174.049Z" fill="url(#b)"/><path d="M1266.335,204.611a6.112,6.112,0,1,1-6.113-6.113A6.112,6.112,0,0,1,1266.335,204.611Z" fill="url(#b)"/><path d="M1303.01,204.611a6.113,6.113,0,1,1-6.113-6.113A6.112,6.112,0,0,1,1303.01,204.611Z" fill="url(#b)"/><path d="M1339.684,204.611a6.112,6.112,0,1,1-6.112-6.113A6.112,6.112,0,0,1,1339.684,204.611Z" fill="url(#b)"/><path d="M1376.358,204.611a6.112,6.112,0,1,1-6.112-6.113A6.112,6.112,0,0,1,1376.358,204.611Z" fill="url(#b)"/><path d="M1413.033,204.611a6.112,6.112,0,1,1-6.112-6.113A6.111,6.111,0,0,1,1413.033,204.611Z" fill="url(#b)"/><path d="M1449.707,204.611a6.112,6.112,0,1,1-6.112-6.113A6.112,6.112,0,0,1,1449.707,204.611Z" fill="url(#b)"/><path d="M1486.382,204.611a6.112,6.112,0,1,1-6.113-6.113A6.112,6.112,0,0,1,1486.382,204.611Z" fill="url(#b)"/><path d="M1523.057,204.611a6.113,6.113,0,1,1-6.113-6.113A6.112,6.112,0,0,1,1523.057,204.611Z" fill="url(#b)"/><path d="M1559.731,204.611a6.112,6.112,0,1,1-6.112-6.113A6.112,6.112,0,0,1,1559.731,204.611Z" fill="url(#b)"/><path d="M1596.405,204.611a6.112,6.112,0,1,1-6.112-6.113A6.112,6.112,0,0,1,1596.405,204.611Z" fill="url(#b)"/><path d="M1633.08,204.611a6.112,6.112,0,1,1-6.113-6.113A6.112,6.112,0,0,1,1633.08,204.611Z" fill="url(#b)"/><path d="M1669.754,204.611a6.112,6.112,0,1,1-6.112-6.113A6.112,6.112,0,0,1,1669.754,204.611Z" fill="url(#b)"/><path d="M1706.429,204.611a6.112,6.112,0,1,1-6.113-6.113A6.112,6.112,0,0,1,1706.429,204.611Z" fill="url(#b)"/><path d="M1743.1,204.611a6.112,6.112,0,1,1-6.113-6.113A6.112,6.112,0,0,1,1743.1,204.611Z" fill="url(#b)"/><path d="M1779.778,204.611a6.112,6.112,0,1,1-6.112-6.113A6.112,6.112,0,0,1,1779.778,204.611Z" fill="url(#b)"/><path d="M1816.452,204.611a6.112,6.112,0,1,1-6.112-6.113A6.112,6.112,0,0,1,1816.452,204.611Z" fill="url(#b)"/><path d="M1266.335,235.173a6.112,6.112,0,1,1-6.113-6.112A6.112,6.112,0,0,1,1266.335,235.173Z" fill="url(#b)"/><path d="M1303.01,235.173a6.113,6.113,0,1,1-6.113-6.112A6.112,6.112,0,0,1,1303.01,235.173Z" fill="url(#b)"/><path d="M1339.684,235.173a6.112,6.112,0,1,1-6.112-6.112A6.112,6.112,0,0,1,1339.684,235.173Z" fill="url(#b)"/><path d="M1376.358,235.173a6.112,6.112,0,1,1-6.112-6.112A6.112,6.112,0,0,1,1376.358,235.173Z" fill="url(#b)"/><path d="M1413.033,235.173a6.112,6.112,0,1,1-6.112-6.112A6.111,6.111,0,0,1,1413.033,235.173Z" fill="url(#b)"/><path d="M1449.707,235.173a6.112,6.112,0,1,1-6.112-6.112A6.112,6.112,0,0,1,1449.707,235.173Z" fill="url(#b)"/><path d="M1486.382,235.173a6.112,6.112,0,1,1-6.113-6.112A6.112,6.112,0,0,1,1486.382,235.173Z" fill="url(#b)"/><path d="M1523.057,235.173a6.113,6.113,0,1,1-6.113-6.112A6.112,6.112,0,0,1,1523.057,235.173Z" fill="url(#b)"/><path d="M1559.731,235.173a6.112,6.112,0,1,1-6.112-6.112A6.112,6.112,0,0,1,1559.731,235.173Z" fill="url(#b)"/><path d="M1596.405,235.173a6.112,6.112,0,1,1-6.112-6.112A6.112,6.112,0,0,1,1596.405,235.173Z" fill="url(#b)"/><path d="M1633.08,235.173a6.112,6.112,0,1,1-6.113-6.112A6.112,6.112,0,0,1,1633.08,235.173Z" fill="url(#b)"/><path d="M1669.754,235.173a6.112,6.112,0,1,1-6.112-6.112A6.112,6.112,0,0,1,1669.754,235.173Z" fill="url(#b)"/><path d="M1706.429,235.173a6.112,6.112,0,1,1-6.113-6.112A6.112,6.112,0,0,1,1706.429,235.173Z" fill="url(#b)"/><path d="M1743.1,235.173a6.112,6.112,0,1,1-6.113-6.112A6.112,6.112,0,0,1,1743.1,235.173Z" fill="url(#b)"/><path d="M1779.778,235.173a6.112,6.112,0,1,1-6.112-6.112A6.112,6.112,0,0,1,1779.778,235.173Z" fill="url(#b)"/><path d="M1816.452,235.173a6.112,6.112,0,1,1-6.112-6.112A6.112,6.112,0,0,1,1816.452,235.173Z" fill="url(#b)"/><path d="M1266.335,265.735a6.112,6.112,0,1,1-6.113-6.112A6.112,6.112,0,0,1,1266.335,265.735Z" fill="url(#b)"/><path d="M1303.01,265.735a6.113,6.113,0,1,1-6.113-6.112A6.112,6.112,0,0,1,1303.01,265.735Z" fill="url(#b)"/><path d="M1339.684,265.735a6.112,6.112,0,1,1-6.112-6.112A6.112,6.112,0,0,1,1339.684,265.735Z" fill="url(#b)"/><path d="M1376.358,265.735a6.112,6.112,0,1,1-6.112-6.112A6.112,6.112,0,0,1,1376.358,265.735Z" fill="url(#b)"/><path d="M1413.033,265.735a6.112,6.112,0,1,1-6.112-6.112A6.111,6.111,0,0,1,1413.033,265.735Z" fill="url(#b)"/><path d="M1449.707,265.735a6.112,6.112,0,1,1-6.112-6.112A6.112,6.112,0,0,1,1449.707,265.735Z" fill="url(#b)"/><path d="M1486.382,265.735a6.112,6.112,0,1,1-6.113-6.112A6.112,6.112,0,0,1,1486.382,265.735Z" fill="url(#b)"/><path d="M1523.057,265.735a6.113,6.113,0,1,1-6.113-6.112A6.112,6.112,0,0,1,1523.057,265.735Z" fill="url(#b)"/><path d="M1559.731,265.735a6.112,6.112,0,1,1-6.112-6.112A6.112,6.112,0,0,1,1559.731,265.735Z" fill="url(#b)"/><path d="M1596.405,265.735a6.112,6.112,0,1,1-6.112-6.112A6.112,6.112,0,0,1,1596.405,265.735Z" fill="url(#b)"/><path d="M1633.08,265.735a6.112,6.112,0,1,1-6.113-6.112A6.112,6.112,0,0,1,1633.08,265.735Z" fill="url(#b)"/><path d="M1669.754,265.735a6.112,6.112,0,1,1-6.112-6.112A6.112,6.112,0,0,1,1669.754,265.735Z" fill="url(#b)"/><path d="M1706.429,265.735a6.112,6.112,0,1,1-6.113-6.112A6.112,6.112,0,0,1,1706.429,265.735Z" fill="url(#b)"/><path d="M1743.1,265.735a6.112,6.112,0,1,1-6.113-6.112A6.112,6.112,0,0,1,1743.1,265.735Z" fill="url(#b)"/><path d="M1779.778,265.735a6.112,6.112,0,1,1-6.112-6.112A6.112,6.112,0,0,1,1779.778,265.735Z" fill="url(#b)"/><path d="M1816.452,265.735a6.112,6.112,0,1,1-6.112-6.112A6.112,6.112,0,0,1,1816.452,265.735Z" fill="url(#b)"/><path d="M1266.335,296.3a6.112,6.112,0,1,1-6.113-6.112A6.112,6.112,0,0,1,1266.335,296.3Z" fill="url(#b)"/><path d="M1303.01,296.3a6.113,6.113,0,1,1-6.113-6.112A6.112,6.112,0,0,1,1303.01,296.3Z" fill="url(#b)"/><path d="M1339.684,296.3a6.112,6.112,0,1,1-6.112-6.112A6.112,6.112,0,0,1,1339.684,296.3Z" fill="url(#b)"/><path d="M1376.358,296.3a6.112,6.112,0,1,1-6.112-6.112A6.112,6.112,0,0,1,1376.358,296.3Z" fill="url(#b)"/><path d="M1413.033,296.3a6.112,6.112,0,1,1-6.112-6.112A6.111,6.111,0,0,1,1413.033,296.3Z" fill="url(#b)"/><path d="M1449.707,296.3a6.112,6.112,0,1,1-6.112-6.112A6.112,6.112,0,0,1,1449.707,296.3Z" fill="url(#b)"/><path d="M1486.382,296.3a6.112,6.112,0,1,1-6.113-6.112A6.112,6.112,0,0,1,1486.382,296.3Z" fill="url(#b)"/><path d="M1523.057,296.3a6.113,6.113,0,1,1-6.113-6.112A6.112,6.112,0,0,1,1523.057,296.3Z" fill="url(#b)"/><path d="M1559.731,296.3a6.112,6.112,0,1,1-6.112-6.112A6.112,6.112,0,0,1,1559.731,296.3Z" fill="url(#b)"/><path d="M1596.405,296.3a6.112,6.112,0,1,1-6.112-6.112A6.112,6.112,0,0,1,1596.405,296.3Z" fill="url(#b)"/><path d="M1633.08,296.3a6.112,6.112,0,1,1-6.113-6.112A6.112,6.112,0,0,1,1633.08,296.3Z" fill="url(#b)"/><path d="M1669.754,296.3a6.112,6.112,0,1,1-6.112-6.112A6.112,6.112,0,0,1,1669.754,296.3Z" fill="url(#b)"/><path d="M1706.429,296.3a6.112,6.112,0,1,1-6.113-6.112A6.112,6.112,0,0,1,1706.429,296.3Z" fill="url(#b)"/><path d="M1743.1,296.3a6.112,6.112,0,1,1-6.113-6.112A6.112,6.112,0,0,1,1743.1,296.3Z" fill="url(#b)"/><path d="M1779.778,296.3a6.112,6.112,0,1,1-6.112-6.112A6.112,6.112,0,0,1,1779.778,296.3Z" fill="url(#b)"/><path d="M1816.452,296.3a6.112,6.112,0,1,1-6.112-6.112A6.112,6.112,0,0,1,1816.452,296.3Z" fill="url(#b)"/></g></g></svg>