<svg xmlns="http://www.w3.org/2000/svg" width="36.985" height="25.427" viewBox="0 0 36.985 25.427"><g transform="translate(0 -80)"><path d="M35.413,82.45c-1-1.785-2.092-2.113-4.309-2.238C28.89,80.062,23.322,80,18.5,80s-10.4.062-12.617.21c-2.212.127-3.3.453-4.316,2.24C.532,84.233,0,87.3,0,92.707v.018c0,5.381.532,8.474,1.565,10.238,1.012,1.785,2.1,2.108,4.313,2.258,2.214.129,7.785.206,12.619.206s10.393-.076,12.61-.2c2.217-.15,3.306-.474,4.309-2.258,1.043-1.764,1.57-4.857,1.57-10.238v-.018C36.985,87.3,36.458,84.233,35.413,82.45Z" fill="#fff"/><path d="M192,173.87V160l11.558,6.935Z" transform="translate(-178.13 -74.221)" fill="#252523"/></g></svg>